<svg viewBox="0 0 1033 400" xmlns="http://www.w3.org/2000/svg"><g><g><g><g><g><line x1="61.953125" y1="377" x2="56.953125" y2="377" style="visibility: inherit;" fill="rgb(0, 0, 0)" stroke="rgb(204, 204, 204)" stroke-width="1px"></line><line x1="61.953125" y1="350.07142857142856" x2="56.953125" y2="350.07142857142856" style="visibility: inherit;" fill="rgb(0, 0, 0)" stroke="rgb(204, 204, 204)" stroke-width="1px"></line><line x1="61.953125" y1="323.14285714285717" x2="56.953125" y2="323.14285714285717" style="visibility: inherit;" fill="rgb(0, 0, 0)" stroke="rgb(204, 204, 204)" stroke-width="1px"></line><line x1="61.953125" y1="296.2142857142857" x2="56.953125" y2="296.2142857142857" style="visibility: inherit;" fill="rgb(0, 0, 0)" stroke="rgb(204, 204, 204)" stroke-width="1px"></line><line x1="61.953125" y1="269.2857142857143" x2="56.953125" y2="269.2857142857143" style="visibility: inherit;" fill="rgb(0, 0, 0)" stroke="rgb(204, 204, 204)" stroke-width="1px"></line><line x1="61.953125" y1="242.35714285714286" x2="56.953125" y2="242.35714285714286" style="visibility: inherit;" fill="rgb(0, 0, 0)" stroke="rgb(204, 204, 204)" stroke-width="1px"></line><line x1="61.953125" y1="215.42857142857144" x2="56.953125" y2="215.42857142857144" style="visibility: inherit;" fill="rgb(0, 0, 0)" stroke="rgb(204, 204, 204)" stroke-width="1px"></line><line x1="61.953125" y1="188.5" x2="56.953125" y2="188.5" style="visibility: inherit;" fill="rgb(0, 0, 0)" stroke="rgb(204, 204, 204)" stroke-width="1px"></line><line x1="61.953125" y1="161.5714285714286" x2="56.953125" y2="161.5714285714286" style="visibility: inherit;" fill="rgb(0, 0, 0)" stroke="rgb(204, 204, 204)" stroke-width="1px"></line><line x1="61.953125" y1="134.64285714285717" x2="56.953125" y2="134.64285714285717" style="visibility: inherit;" fill="rgb(0, 0, 0)" stroke="rgb(204, 204, 204)" stroke-width="1px"></line><line x1="61.953125" y1="107.71428571428575" x2="56.953125" y2="107.71428571428575" style="visibility: inherit;" fill="rgb(0, 0, 0)" stroke="rgb(204, 204, 204)" stroke-width="1px"></line><line x1="61.953125" y1="80.78571428571429" x2="56.953125" y2="80.78571428571429" style="visibility: inherit;" fill="rgb(0, 0, 0)" stroke="rgb(204, 204, 204)" stroke-width="1px"></line><line x1="61.953125" y1="53.85714285714283" x2="56.953125" y2="53.85714285714283" style="visibility: inherit;" fill="rgb(0, 0, 0)" stroke="rgb(204, 204, 204)" stroke-width="1px"></line><line x1="61.953125" y1="26.92857142857146" x2="56.953125" y2="26.92857142857146" style="visibility: inherit;" fill="rgb(0, 0, 0)" stroke="rgb(204, 204, 204)" stroke-width="1px"></line><line x1="61.953125" y1="0" x2="56.953125" y2="0" style="visibility: inherit;" fill="rgb(0, 0, 0)" stroke="rgb(204, 204, 204)" stroke-width="1px"></line></g><g transform="translate(51.953125, 0)"><text x="0" y="377" dx="0em" dy="0.3em" style="text-anchor: end; visibility: hidden; font-family: Roboto, sans-serif; font-size: 12px; font-weight: 200;" fill="rgb(255, 255, 255)" stroke="none" stroke-width="1px">-0.05</text><text x="0" y="350.07142857142856" dx="0em" dy="0.3em" style="text-anchor: end; visibility: inherit; font-family: Roboto, sans-serif; font-size: 12px; font-weight: 200;" fill="rgb(255, 255, 255)" stroke="none" stroke-width="1px">0</text><text x="0" y="323.14285714285717" dx="0em" dy="0.3em" style="text-anchor: end; visibility: inherit; font-family: Roboto, sans-serif; font-size: 12px; font-weight: 200;" fill="rgb(255, 255, 255)" stroke="none" stroke-width="1px">0.05</text><text x="0" y="296.2142857142857" dx="0em" dy="0.3em" style="text-anchor: end; visibility: inherit; font-family: Roboto, sans-serif; font-size: 12px; font-weight: 200;" fill="rgb(255, 255, 255)" stroke="none" stroke-width="1px">0.1</text><text x="0" y="269.2857142857143" dx="0em" dy="0.3em" style="text-anchor: end; visibility: inherit; font-family: Roboto, sans-serif; font-size: 12px; font-weight: 200;" fill="rgb(255, 255, 255)" stroke="none" stroke-width="1px">0.15</text><text x="0" y="242.35714285714286" dx="0em" dy="0.3em" style="text-anchor: end; visibility: inherit; font-family: Roboto, sans-serif; font-size: 12px; font-weight: 200;" fill="rgb(255, 255, 255)" stroke="none" stroke-width="1px">0.2</text><text x="0" y="215.42857142857144" dx="0em" dy="0.3em" style="text-anchor: end; visibility: inherit; font-family: Roboto, sans-serif; font-size: 12px; font-weight: 200;" fill="rgb(255, 255, 255)" stroke="none" stroke-width="1px">0.25</text><text x="0" y="188.5" dx="0em" dy="0.3em" style="text-anchor: end; visibility: inherit; font-family: Roboto, sans-serif; font-size: 12px; font-weight: 200;" fill="rgb(255, 255, 255)" stroke="none" stroke-width="1px">0.3</text><text x="0" y="161.5714285714286" dx="0em" dy="0.3em" style="text-anchor: end; visibility: inherit; font-family: Roboto, sans-serif; font-size: 12px; font-weight: 200;" fill="rgb(255, 255, 255)" stroke="none" stroke-width="1px">0.35</text><text x="0" y="134.64285714285717" dx="0em" dy="0.3em" style="text-anchor: end; visibility: inherit; font-family: Roboto, sans-serif; font-size: 12px; font-weight: 200;" fill="rgb(255, 255, 255)" stroke="none" stroke-width="1px">0.4</text><text x="0" y="107.71428571428575" dx="0em" dy="0.3em" style="text-anchor: end; visibility: inherit; font-family: Roboto, sans-serif; font-size: 12px; font-weight: 200;" fill="rgb(255, 255, 255)" stroke="none" stroke-width="1px">0.45</text><text x="0" y="80.78571428571429" dx="0em" dy="0.3em" style="text-anchor: end; visibility: inherit; font-family: Roboto, sans-serif; font-size: 12px; font-weight: 200;" fill="rgb(255, 255, 255)" stroke="none" stroke-width="1px">0.5</text><text x="0" y="53.85714285714283" dx="0em" dy="0.3em" style="text-anchor: end; visibility: inherit; font-family: Roboto, sans-serif; font-size: 12px; font-weight: 200;" fill="rgb(255, 255, 255)" stroke="none" stroke-width="1px">0.55</text><text x="0" y="26.92857142857146" dx="0em" dy="0.3em" style="text-anchor: end; visibility: inherit; font-family: Roboto, sans-serif; font-size: 12px; font-weight: 200;" fill="rgb(255, 255, 255)" stroke="none" stroke-width="1px">0.6</text><text x="0" y="0" dx="0em" dy="0.3em" style="text-anchor: end; visibility: hidden; font-family: Roboto, sans-serif; font-size: 12px; font-weight: 200;" fill="rgb(255, 255, 255)" stroke="none" stroke-width="1px">0.65</text></g><line x1="61.953125" y1="0" x2="61.953125" y2="377" fill="rgb(0, 0, 0)" stroke="rgb(204, 204, 204)" stroke-width="1px"></line></g></g><g transform="translate(61, 0)" clip-path="url(#clip_0)"><clipPath id="clip_0"><rect width="971" height="377"></rect></clipPath><g><g><g><line x1="0" y1="0" x2="0" y2="377" fill="rgb(0, 0, 0)" stroke="rgb(189, 189, 189)" stroke-width="1px" opacity="0.25"></line><line x1="121.380859375" y1="0" x2="121.380859375" y2="377" fill="rgb(0, 0, 0)" stroke="rgb(189, 189, 189)" stroke-width="1px" opacity="0.25"></line><line x1="242.76171875" y1="0" x2="242.76171875" y2="377" fill="rgb(0, 0, 0)" stroke="rgb(189, 189, 189)" stroke-width="1px" opacity="0.25"></line><line x1="364.142578125" y1="0" x2="364.142578125" y2="377" fill="rgb(0, 0, 0)" stroke="rgb(189, 189, 189)" stroke-width="1px" opacity="0.25"></line><line x1="485.5234375" y1="0" x2="485.5234375" y2="377" fill="rgb(0, 0, 0)" stroke="rgb(189, 189, 189)" stroke-width="1px" opacity="0.25"></line><line x1="606.904296875" y1="0" x2="606.904296875" y2="377" fill="rgb(0, 0, 0)" stroke="rgb(189, 189, 189)" stroke-width="1px" opacity="0.25"></line><line x1="728.28515625" y1="0" x2="728.28515625" y2="377" fill="rgb(0, 0, 0)" stroke="rgb(189, 189, 189)" stroke-width="1px" opacity="0.25"></line><line x1="849.666015625" y1="0" x2="849.666015625" y2="377" fill="rgb(0, 0, 0)" stroke="rgb(189, 189, 189)" stroke-width="1px" opacity="0.25"></line><line x1="971.046875" y1="0" x2="971.046875" y2="377" fill="rgb(0, 0, 0)" stroke="rgb(189, 189, 189)" stroke-width="1px" opacity="0.25"></line></g><g><line x1="0" y1="377" x2="971.046875" y2="377" fill="rgb(0, 0, 0)" stroke="rgb(189, 189, 189)" stroke-width="1px" opacity="0.25"></line><line x1="0" y1="350.07142857142856" x2="971.046875" y2="350.07142857142856" fill="rgb(0, 0, 0)" stroke="rgb(189, 189, 189)" stroke-width="1px" opacity="0.25"></line><line x1="0" y1="323.14285714285717" x2="971.046875" y2="323.14285714285717" fill="rgb(0, 0, 0)" stroke="rgb(189, 189, 189)" stroke-width="1px" opacity="0.25"></line><line x1="0" y1="296.2142857142857" x2="971.046875" y2="296.2142857142857" fill="rgb(0, 0, 0)" stroke="rgb(189, 189, 189)" stroke-width="1px" opacity="0.25"></line><line x1="0" y1="269.2857142857143" x2="971.046875" y2="269.2857142857143" fill="rgb(0, 0, 0)" stroke="rgb(189, 189, 189)" stroke-width="1px" opacity="0.25"></line><line x1="0" y1="242.35714285714286" x2="971.046875" y2="242.35714285714286" fill="rgb(0, 0, 0)" stroke="rgb(189, 189, 189)" stroke-width="1px" opacity="0.25"></line><line x1="0" y1="215.42857142857144" x2="971.046875" y2="215.42857142857144" fill="rgb(0, 0, 0)" stroke="rgb(189, 189, 189)" stroke-width="1px" opacity="0.25"></line><line x1="0" y1="188.5" x2="971.046875" y2="188.5" fill="rgb(0, 0, 0)" stroke="rgb(189, 189, 189)" stroke-width="1px" opacity="0.25"></line><line x1="0" y1="161.5714285714286" x2="971.046875" y2="161.5714285714286" fill="rgb(0, 0, 0)" stroke="rgb(189, 189, 189)" stroke-width="1px" opacity="0.25"></line><line x1="0" y1="134.64285714285717" x2="971.046875" y2="134.64285714285717" fill="rgb(0, 0, 0)" stroke="rgb(189, 189, 189)" stroke-width="1px" opacity="0.25"></line><line x1="0" y1="107.71428571428575" x2="971.046875" y2="107.71428571428575" fill="rgb(0, 0, 0)" stroke="rgb(189, 189, 189)" stroke-width="1px" opacity="0.25"></line><line x1="0" y1="80.78571428571429" x2="971.046875" y2="80.78571428571429" fill="rgb(0, 0, 0)" stroke="rgb(189, 189, 189)" stroke-width="1px" opacity="0.25"></line><line x1="0" y1="53.85714285714283" x2="971.046875" y2="53.85714285714283" fill="rgb(0, 0, 0)" stroke="rgb(189, 189, 189)" stroke-width="1px" opacity="0.25"></line><line x1="0" y1="26.92857142857146" x2="971.046875" y2="26.92857142857146" fill="rgb(0, 0, 0)" stroke="rgb(189, 189, 189)" stroke-width="1px" opacity="0.25"></line><line x1="0" y1="0" x2="971.046875" y2="0" fill="rgb(0, 0, 0)" stroke="rgb(189, 189, 189)" stroke-width="1px" opacity="0.25"></line></g></g></g><g><g><line x1="0" y1="350.07142857142856" x2="971.046875" y2="350.07142857142856" fill="rgb(0, 0, 0)" stroke="rgb(153, 153, 153)" stroke-width="1.5px"></line></g></g><g><g><line x1="121.380859375" y1="0" x2="121.380859375" y2="377" fill="rgb(0, 0, 0)" stroke="rgb(153, 153, 153)" stroke-width="1.5px"></line></g></g><g><g><g><g><g><path stroke="rgb(255, 112, 67)" stroke-width="2px" d="M152.5729754481337,-12.845619198939652L153.1094788465712,21.277936313504856L153.48211808485243,41.240820414370035L157.1327822981771,60.62342976449613L157.3114144628906,18.060197893154278L157.4634102723524,46.10416783958077L158.1685656315104,70.2859222821992L158.47289441948786,84.81843921547899L158.96462176757814,82.25576438555983L159.03745028320313,83.441735712844L159.37967687282986,74.19328576863319L159.50146233506945,35.70078649323709L160.03479634440106,40.13880165957664L160.13817237630207,89.63761180842316L160.42807032877604,100.45157639471003L162.26233741536458,107.6812277376849L162.30906904622395,34.972550177782274L164.040094968533,39.037890198085556L164.16376857747397,24.938799831204403L164.2732810861545,43.78854195392479L164.84370369140626,57.79483002510201L164.89461621853297,70.62684876491456L165.64131080512155,108.40856970662445L165.87132753363716,101.05729266371311L165.93889621202257,99.73108844275166L166.77399652452257,112.50600420147696L167.12168525282118,108.22066546879672L167.66108830512152,93.72957323589787L170.55966322699652,120.52633960987538L172.06991085286458,70.39210367118415L174.51276808159722,85.98047447978772L174.5572743967014,101.90392396739922L174.83017902886286,128.82487956124237L175.16613427408856,140.80338544113934L176.12180624023438,136.28245915130915L176.57132002278647,130.25928581378432L177.34424636176215,91.7413445975078L177.58397355902778,71.10913730932333L177.74068973524305,64.9494291174211L177.76334749565973,108.63791084418087L179.064752609592,127.16677241650402L179.12645454644098,142.05848155817307L180.11651775607638,151.04837196558896L180.95411311957463,148.03388613934948L181.47591594726563,188.40273630226352L181.8785632313368,196.41484160501284L181.8919825596788,192.9086344228275L182.1144467013889,199.96673985216526L182.3597709049479,158.25505485325684L182.68615054904512,141.56170892205918L183.44801774305557,173.7876906555262L183.46818045247397,197.255452646303L183.52947778645836,205.58892356624477L183.61761377712673,200.59279162800522L183.67978775065103,201.0176890850716L183.74209659179687,180.67841725211173L183.94817431749132,193.09093319476895L184.49560199327257,174.06281343558197L184.9532752669271,183.84388821925722L185.0781626844618,214.3796848020432L186.71653455078126,193.69722265300638L187.4995759613715,177.6510799127991L187.63936625108508,189.76944642870626L188.789787062717,184.38576163353918L188.83881144314236,201.6394789384882L189.15763850043405,210.90583996304312L189.90109626410592,200.98755866634508L190.38817067925345,194.5897903684646L190.8502945844184,187.0913606213146L191.04106483506945,181.29296128083286L192.62447814561634,169.86775298128893L192.82387992404512,190.33689591175548L193.75399447591147,122.92284389081046L194.4274559440104,139.86739661464375L196.28417848958335,178.63921261084542L196.40886360568575,181.90819257380915L197.39575742621528,197.3003690418855L199.01160639973958,207.74628999163508L199.5789270496962,226.02886675908118L202.07829381184897,215.26439914628966L202.19556120876734,222.58155111801116L202.3538283626302,210.9236347431954L202.6669909798177,235.34868934781161L202.7984869108073,221.95811210766675L203.0111731499566,214.8668754446755L203.09472364149306,226.83897442791198L203.18252246310763,223.18435048021482L204.19396219075523,214.09902817687802L204.44097223958332,209.52447062296545L205.28605275607637,238.28036523282677L205.50952840494793,220.29762275803742L205.77144132595487,228.21096966623415L207.0634057063802,225.22156814332055L207.19631774739582,239.68370390998706L208.84440008246528,217.45926866900507L209.57518028971356,209.62433123225526L209.9558441514757,220.09292434176967L210.47056642903647,226.3546434015049L212.46593288953994,227.14186326070512L212.5941245638021,223.36325825854493L213.93389951605903,237.4533567853032L215.35290919596355,234.88534079565568L215.87538636176214,239.45041162782232L216.0292028841146,257.53820113612943L217.14489528320314,249.34258075848763L218.78852698676215,266.8744753051736L219.16022215169272,257.4577112986018L219.21713628797744,266.6553824575227L219.4690690049913,263.31865919524313L219.494289250217,253.88484900006375L220.09202254882814,221.04813505679243L220.9184238997396,203.25251316112463L222.64884291775175,227.38717573329487L224.4125068044705,229.4518631338328L225.5296827473958,226.27447040063697L225.8382598654514,216.35524600567734L225.98250078667536,227.58553081764978L226.27738884114584,240.38110025376514L226.33126845594617,220.34337382765133L229.84052396809898,238.50089427756734L229.8865812608507,236.39705650619393L229.91557779947917,237.25681800572485L230.91413766927084,241.32590753613806L232.62021308159723,252.8717930305015L232.6304630208333,266.35820868669083L233.11409831163195,263.02115771902453L234.63102188476563,250.75482599938826L236.23156338324654,254.3324814107075L236.90846397569442,254.47520337636058L239.10087203125,253.52350598935882L239.42239644097222,242.87841432073864L240.68536428276911,255.14824805069807L241.28700874240454,262.3720397371599L241.97072014973958,261.23606420920754L242.65328518229165,260.2136483815459L242.7253044921875,259.18039533077655L244.79397150499133,259.99141225146894L245.10821306315108,263.62316119672124L245.18421096788197,264.41997859165446L246.0609179416233,254.25453080380035L247.78688632812504,249.48615084435315L249.3075187608507,269.59224441830963L249.75858352105033,260.5959997427172L250.19744276150175,260.59041963226275L250.72996756510418,272.388283165187L251.66136335937497,255.36190559934568L251.86352992404514,256.83362456496025L251.99684656792533,260.03981280067535L252.75938810004337,266.4307962205063L253.50945437717016,255.54641655972424L254.49156039713546,262.26685367435147L254.58799074652774,266.36970587486775L254.62467473958333,279.54480505651475L254.6800378982205,295.8395093614079L254.72231889756944,293.3581911495237L255.16239194661458,278.16639679816075L256.0552156011285,268.08173930194135L256.54667321397574,269.64676101978597L258.7125123480903,273.8674781083938L261.2409430826823,276.1779776326238L262.62684276150173,280.54724348840654L263.0765588454861,277.0114559811708L263.3933628884549,283.5617175315278L263.5876396972656,287.2715968592786L263.77692640407986,260.51952795449284L263.7880529828559,271.6249275392505L266.27959742296014,278.7954653158601L267.2195573111979,281.16240335609905L267.629959483507,295.2050080903501L267.65322414822054,295.14328790597096L267.7172862684462,285.4578062504425L267.7710984494358,287.2618549995765L269.6624819737413,288.5206323511557L269.778535562066,266.22374046422016L270.25124657552084,263.7744261896931L270.2770737250434,249.1585415508566L270.5600259950087,260.8681394061388L270.6216604980468,272.9063840040803L271.4181212369792,274.5138393895111L271.4494105251736,278.1913535701814L274.72925621310765,277.2374372744369L275.5557249978299,269.7421818225579L277.8049797558594,251.38455310581477L278.12994328993057,258.6218045716417L278.93294510850694,232.51736491921358L280.6549349001736,249.9777202882944L282.1036154568142,260.69173774572397L282.25298134765626,284.36361121290895L282.49122500108507,268.1841128179961L283.2888995486111,281.2691412060305L283.7415827202691,291.44329661101654L284.69624317925343,230.74119489991855L285.58407673177084,246.82164884091475L285.82279242187496,271.2918744536964L286.87489473741323,279.1727837577647L286.9015310926649,283.0334553693663L288.0814204796007,286.04290278888664L288.5334967469618,285.0953184182824L290.7312995073785,277.0444517485281L291.4260026258681,289.0241519464593L291.4632935232205,296.3988555892566L292.2521342415364,286.2891862580842L293.536613468967,290.96545055118116L294.2624710080295,295.6540046989683L294.83828831814236,295.9891121400812L295.5558514984809,272.54131599478427L296.77754984809025,272.1512997598351L297.1967184157986,270.3822276417968L297.65115486653644,282.50387324227444L298.3478135655382,245.15118635876166L298.515791188151,268.31315001422735L300.0517985297309,275.5797486771756L300.4362386848958,278.1838081548944L302.71658042968755,279.23662063491554L303.1910447222222,279.03146598230967L303.57717072265626,250.46800974854656L304.0109724273004,260.3505768591153L305.144062749566,274.123932683205L306.07626774956594,213.55172560151672L306.68222797309033,250.52035703428854L307.85894797092016,269.5838457290428L308.4669986425781,282.3451155102211L308.56437306532115,279.77094927567384L308.6966107682291,273.8591840844255L308.8260836848958,276.1846034333257L309.26258274197045,293.71292327299284L310.4107782378472,277.4201577051869L310.443955672743,284.4714612473066L312.1809157703993,287.49392760836525L312.23263750325526,289.6812185495947L312.32407775065104,299.3956947223197L312.38267773220485,295.92198282005654L312.3987944129774,292.84096532989514L313.40133287760415,294.5878051300131L314.13002263671876,301.34586981823975L314.6741460557726,286.1335138452904L314.937340219184,295.8251699579733L315.8785813498264,292.6784688382386L315.92531298068576,288.5801574943355L316.2112997721354,289.44150840895685L316.93931519314236,301.34322416576975L317.5082542545573,299.227804765093L317.5331373307291,302.4937539161068L318.5014868532986,313.18092231201814L318.99449544379337,302.13449670031554L321.28542429687496,297.4715975941993L322.71650462890625,305.7945072884708L324.0790722092014,294.30360772004127L325.129623547092,287.46065159981L325.80638927191836,294.88451334087915L326.1276439463976,296.35176442790384L326.502238765191,292.2696149535853L327.597228984375,299.31364040232273L327.81423098741317,285.82015560244076L328.5996325813802,279.71912926517876L328.9633031228298,285.84427325812715L330.7747775813802,281.6745042334735L331.4856648144531,290.5569715532621L332.34605280598964,284.9405970743537L332.7435751204427,290.20500468087283L333.43018618164064,285.1822796129135L334.75822765082467,299.998552979092L335.609512077908,292.8394948463816L335.6292027506511,296.91968107507046L336.2269360492621,301.83929359700943L337.7232248763021,291.73076243973804L337.7891077094184,300.20940374169953L337.90974679687497,292.71748743761185L338.5113238226997,298.1933218267469L339.50428668619793,301.0623323531622L339.82136046440974,300.5584973066465L340.1754554047309,307.2071154939109L340.5943542371962,293.8716884443662L342.1211905805122,306.05207886273246L342.62593265407986,307.15782476425625L346.1218362717014,303.0389591198684L346.1234546831597,293.0662807074881L346.35151583116317,289.8299039323497L346.40047277777774,303.69425235080513L346.4685134928385,303.4487073215474L347.3540542957899,288.70159875463713L347.9819979416232,275.0093891997136L348.83638432400176,286.65969498309335L348.8567493348524,292.6947692307971L349.58624829969614,255.55905341717462L350.75426933593747,280.05009160491306L351.6216030099826,267.72923902717224L353.76572845703123,280.60086912895883L357.8583538661024,265.5144088545446L358.0160141156684,284.475218981404L358.9671005826823,283.6151425893351L360.8789165516493,283.39563753203095L361.1601155425347,294.82499819739405L361.30907683051214,301.91987861173027L361.4701762044271,294.8808334219832L362.33083393120654,304.12078363638125L362.5732584809027,301.19526638550445L365.60312703233507,295.56789883986863L365.6924768315972,300.51904668783845L365.93031588216144,305.13415757374446L367.4362477441406,296.08869774208415L367.83167961046007,294.719730609953L368.4956329112413,293.58934970724886L369.5854981608073,299.55726368004315L369.8323059082031,292.8634433445477L370.612312797309,301.1585591528831L370.6339590505643,299.2330029395812L370.77793023654516,309.90409684213694L371.4698011349826,304.3707321012078L372.8843601833767,301.0087596551687L373.3191733951823,304.0333575280561L374.0725439290365,306.9260556904145L374.8553156043837,303.58147071040145L374.86374483072916,306.0836024452327L375.6827284624566,291.157640471668L376.5446674316406,301.4802740852064L379.4656978125,307.01254874440656L380.0114396430122,308.97085128024435L380.2554151703559,310.7432407716742L380.33228971462677,301.5088096510667L381.38102033962673,306.8991884555286L381.4506120323351,305.953809675302L381.5002433170573,305.62985452387016L381.5166297330729,311.2480744489043L381.65075558268234,299.39525724753344L382.856944155816,298.4113244881202L383.2566917860243,295.44309771620976L383.64942629991316,307.07500076234754L384.8731476638455,313.6751385500553L384.9328265863715,308.9109905848401L385.4513251573351,303.1262754107386L385.45301100260417,299.18948549254327L386.576053687066,305.7467857366897L386.81308353190104,311.9476331126021L387.3058898209635,303.1211917731377L387.7257327267795,297.8154791317383L388.4956919780816,303.96018999600176L388.7122893782552,307.4297778333473L389.3955287489149,314.61316618901066L389.4934426421441,311.14768638636104L389.6981042578125,303.60011259696745L393.2720962282986,311.67626684142016L393.9235068402778,316.5107312801678L395.44933167643234,316.3673154854703L396.80717888997395,315.91916738068284L397.1977555219184,302.65280448044103L397.39924774848095,312.64540576297327L397.4948688921441,315.2284189957942L397.6158451486545,313.85268717731935L397.62258852973093,318.93891407014223L399.066278984375,316.94584380013634L399.6264516503906,322.04922947437603L399.9684085047743,324.50310487826994L401.60887081922743,328.3929944595026L401.7848056315104,313.0539316371726L402.08090749457466,302.67305189128723L402.10356525499134,303.81895835016053L402.16418825086805,302.09722727589946L402.2316894954427,305.9844619241979L402.3908332888455,302.62877871884825L402.4731025379774,304.103945324474L403.0887732302517,303.6286733590538L404.885142515191,302.1312238040143L405.3007370909288,312.3912770603967L406.78374145724825,307.51431270310314L406.9979112402344,312.2827769343573L408.79691044379337,306.5761785427674L409.8398417610677,302.9711720404443L410.4995467317708,306.7486299820048L410.72659637261285,311.50714607275773L410.75141201497394,294.6628050740119L412.45755486111113,294.37787077863584L413.299263687066,300.7703694618807L413.33176678385416,301.9083448357843L413.4426954025608,304.5762589217824L413.7225457172309,311.06246136916155L413.9798057052951,312.81079681687413L414.3150191786024,309.83428597596935L414.9943473882378,308.9815935941229L417.7382291482205,313.7827423404178L418.544063186849,313.22089251720246L419.2817890766059,309.1928298180497L419.37100400824653,312.8107624983867L419.6705449956597,302.43984647990015L419.732718969184,298.2872511844486L420.3369259136285,293.56120582083696L421.1056713563368,286.65282257474087L421.1513914800347,294.56118269909285L421.44742590928814,293.44719006236915L422.60735488823786,301.5082801686627L422.92759805555556,305.5183529256686L423.0344806456163,288.11217442211847L423.83033448025174,294.57073706205756L424.1807205609809,299.7667894387965L425.20362403645834,294.95092271307857L427.59159014322915,303.2322655538398L429.16954131510414,311.37333267282276L429.3944330740017,315.1596820504949L429.74016622178823,312.87538222639466L430.74095140733505,316.2850126260451L430.77972584852427,300.9411383249531L431.9766759895833,286.07299182576395L432.452016921658,295.0362637261277L432.7255284581163,296.0745217719481L433.14564109917535,293.6700917202186L433.96738951714406,295.1401975205139L434.2093420301649,301.5483563819037L434.5539288031684,310.3827987898249L435.27425676974826,317.54308514614905L436.30235264865456,297.7653614038842L436.69481742730034,297.47663356764815L437.40408624891495,307.6106981565514L437.5591165798611,303.1114879946916L437.9453100141059,298.9631499717757L438.46353884982636,298.5054456634878L439.81417064561634,298.58437958397775L440.65608177300345,305.38403775130286L440.7212902680122,308.8587555323496L440.73754181640624,321.3964510320423L442.1581699077691,326.4929287410903L443.10096201605904,323.9868175471176L443.30333088216145,315.5432531398441L443.44399781141493,301.7964047775572L443.8102982714844,312.9874652589049L444.25327097439236,311.66372687481805L444.5757394574653,308.6829540918666L445.86244400065107,314.1149803685444L446.2500535449219,313.7790212595254L447.28772502495656,315.1950590203546L447.4606253157552,319.3777732240038L448.991507687717,316.328421851264L449.328811609158,313.636126710343L449.8375322775608,321.79447476741035L450.8414194184028,326.6568528175094L451.8371470681424,322.2673229640924L452.15887377929687,321.3474616546497L452.85526274305556,321.56397409372346L453.6387087565104,315.91151694833303L453.8673768088108,300.4345710426573L454.70389323133685,299.702080638609L456.16545364583334,314.45631716801483L456.75907348198785,325.1336532353191L458.15711124674476,322.55940522637906L458.1636523263889,318.3654031424285L458.2573853233507,316.5501878032255L459.02896298611114,317.41300070287804L459.3316733626302,311.4725331141395L460.09839579101566,315.02254968638664L461.52259787434895,308.66549114946906L461.61228484266496,307.18635026754754L461.7031181857639,304.33139543896544L461.71127767686636,311.05201893615373L462.33342201497396,312.15880574398983L462.41306134548614,311.90099358402523L462.4164330360243,308.67822407547277L462.7834078342014,310.63562485654415L462.97046922526044,312.1435652537484L464.0620877539062,310.12276446661497L465.06867224717877,295.55388673470276L465.76404970377604,296.5641023891684L466.7032003862847,306.0123853508222L467.5362776844618,300.2573546419156L467.9242918315972,302.4833063361798L468.69546489149303,312.60834599904535L468.74314059570315,312.3549188773126L469.80650435763886,320.1701321520162L469.88985254774303,318.77520454629524L470.6758610460069,310.0822411524817L470.801220500217,315.49900282913933L471.43273813802085,315.8600565414018L471.51008471896705,317.8306874915649L473.8365511903212,307.43292522942386L473.84895901150173,311.37758479779484L473.953413984375,315.85103067382374L475.1577144108073,323.58012638056624L475.85902604275174,326.28479465041573L476.03893944986976,322.86819263936655L479.40152642361113,321.4292648570379L484.00368170681423,323.57283158688614L485.3216081043837,319.31135792178117L485.5008471733941,326.5135277600332L485.8877149457465,329.0721234363011L487.5509698882379,307.07256174571665L487.9337916319445,313.6818782643674L488.02617595269095,322.4646709801843L488.7692291134983,315.1913036106285L490.72737211046,323.47654797834355L492.00686123589406,325.37378353440243L492.0136046169705,313.504376697696L492.69421406901046,317.8934381175956L492.74087826605904,316.4450335663383L493.51919930989584,317.0271084749802L493.52472888237855,324.5266505448489L494.43589453342014,325.36037510401883L494.5251094650607,318.10332390405085L496.72770002604165,322.29177160843335L497.36427519965275,316.7307975148614L497.58599756944443,320.45793332476364L498.4452391861979,322.68553862824115L498.6484172580295,318.2554930894437L499.47434657226563,321.2552527829203L500.06135789496534,316.1436530442611L501.7080915538194,321.78157560146155L502.7380081456163,323.50901708564965L504.01493478624127,322.0729799226654L505.3029205718317,325.8653472008477L507.0177623795572,328.17265390282233L507.9443029394532,324.5274965495031L509.3098376074219,321.8840987775248L509.45509003580725,322.39104349903334L509.47619681857645,325.6593021610859L510.14763527235243,296.3637204806604L510.45634725802955,295.16547567516386L511.2484922330729,306.5227632011633L512.3774016590712,311.7126832391437L512.7074901627603,316.76990049682155L514.5861961306424,304.58995644209796L515.4885953862847,310.16469833604447L517.9706316590712,313.1758805056391L518.2547977376303,319.8380548220223L519.3795937011719,322.28647899785574L519.8994409483506,316.8493462272121L519.9547366731771,320.3226463152044L520.7612450499132,306.59080212181715L520.863811876085,312.09387375357664L520.955791593967,312.8505825479012L522.1234080273437,323.9584729428993L523.3126707139756,326.52525896602884L523.4247457074653,331.3775691606851L523.4710053016493,331.21819057726293L525.9380712684462,330.2238078183025L526.5285217154948,324.89524440237744L526.8080348611111,325.658608744232L527.4210082009548,323.5156142940594L527.460929016927,313.94455931306084L529.9848416861979,316.9369758885883L530.4576201334636,313.19255035169164L530.5859466753473,318.3654057148037L531.2739064127604,319.743051413151L532.2018630826823,323.6900580548164L532.3980954720053,327.90797423062486L533.143845985243,326.3308981049305L534.4668973524306,332.43410923353366L534.6277269911023,302.7576071678841L537.4366823784723,306.8018557350696L539.7818954492188,299.4291896092392L540.5374912988281,305.5605082448757L542.4475539887153,309.61061409134385L542.6103392078994,308.1220802628768L542.6311762554254,309.7463441333816L543.0274847612847,319.38279095438196L544.5603901475694,326.22082598252086L545.65066,328.09886165502155L545.6538968229166,326.21391559682155L545.9884359581163,327.37466468249585L546.8273799978299,326.4961031013506L546.8323026660156,330.3421985043324L547.520194969618,330.77130412224153L547.9956033355035,322.9970193880759L548.2517169487847,320.7590090703148L548.6256374294704,323.60310158331674L549.2332160644531,311.0534084650538L549.745578158637,316.7810516622576L549.9547578396268,314.34136187365027L551.1917636642795,311.7484280845582L553.0628496115452,318.8052814914207L553.2520688845486,327.24976141199056L553.4462782595486,327.09813443128064L553.8498021831597,325.13240065118L555.7293173567708,326.97952910221215L555.7328239149306,327.509314906565L555.7559537120226,325.75346179016753L556.0208337207032,323.8549126138092L556.3209141786024,329.3083234581371L556.5361629025608,327.85171094290985L557.5640564800348,327.5303950911035L558.8270917556424,332.3758385074414L559.0881280371094,319.2953750080016L559.3543567220053,325.8040295771562L559.516669904514,322.44880818329807L561.2218686773003,309.7341095559276L562.3581958224827,314.431149578992L562.6575345084635,317.0822218791321L655.499191359592,324.3337187013523L656.7018733745659,329.96723429325414L657.131426749132,324.5912762690693L657.6636818174914,320.77483454866535L657.9927588140191,312.9192336302322L659.0226079720052,314.978385725768L671.3441813085938,309.5095914421756L674.0332393804252,314.25791745244493L674.1944736219617,318.6540975469952L674.9321320779079,315.12293284175666L675.5421383300782,317.45620858769837L677.739603921441,324.6419171249451L680.1246029405382,320.87694784742837L681.6407173079427,317.65279155386645L682.359224561632,313.86228036371665L684.018568343099,312.04373869295756L684.9791629774306,315.66825554891506L685.1904331065538,320.5307114146389L685.4449283083767,314.02343701948L686.4676294824218,313.307554072523L686.7054010991753,306.957593674721L687.7455676302083,316.42479331628357L687.8783448036024,318.3163992351494L689.0926928678385,315.1249993469738L689.6806482638889,322.1601404657338L689.7149720735677,327.8908277942636L690.0472184592014,326.2223349890386L691.2623757291667,326.4054634228831L691.803194891493,326.7816044797896L692.0116328005643,325.66310196756115L692.8016198936632,326.6764029879832L692.9671698990885,331.90997220037315L692.9893556228299,332.8474548261255L693.4290240690104,323.28351258737916L694.126289672309,319.6417206373848L694.5318366102431,317.6191074513034L695.1528345735677,324.08998346366417L695.280689078776,330.44144918015223L695.6958116178386,319.99760264787983L696.0920526898872,312.59881905039623L697.6722966113281,316.8444116512732L697.8836341742622,325.5811641264433L698.1782524934896,323.0337503601572L698.3263371419271,314.751647157638L699.6748784895834,319.8657357304739L699.7817610796441,326.69029237840715L700.8319078146702,324.9130553538803L702.0593380381945,322.92150358692214L702.5751392567274,319.4580240045722L704.5937703819445,327.4399318661071L704.8353182921006,327.34316362394276L705.0729550412326,327.4840394894163L705.1678344129774,324.58937266642687L705.4372324869792,322.5253659322907L706.2545977072483,326.7622611799126L706.5032936013455,325.93909654263416L706.5210961273872,325.8300895959973L707.6870941493056,318.2865119166444L708.1457789301215,326.1636068479508L708.1814514160155,327.340405164203L708.391238001302,327.4496597112042L708.4833525868055,329.3666437373769L709.172661000434,327.99034726711136L709.8650713693577,329.5943565056542L712.4992383192275,333.995592055492L712.8136147450086,325.2352513420474L712.8389024240452,327.64109197968656L712.9560349533419,322.81384089044525L713.3827561078558,317.4140391251829L713.3992773914931,316.2076693962437L714.2848856282552,322.71987965033725L715.3557345431858,309.97644142014786L715.9544793489583,310.872138595053L717.0806239887153,317.4445600676322L717.3535960546875,323.90279047433324L717.8694647070312,327.310415570562L717.9866646701389,324.54866030357215L718.4150042361111,326.6253012061113L718.5682812879775,326.3764403482114L719.4512596061198,320.6367391445229L719.7574091069879,327.6894217714107L720.0925551464844,325.41997295453405L720.3339681890191,322.8097023320105L720.97404992079,326.43970287244247L721.2149234928386,325.91549762946073L721.3455427842882,327.5125581535289L722.1428801627604,321.844519628303L722.3118692925348,327.2694213815042L722.5721638020833,328.08223818215845L722.5751983235676,324.8417983981785L722.7206530533855,323.05471909554507L723.3884500813803,326.4734910116663L724.2120192122396,328.805303531936L724.2611784602864,318.78752023733244L725.1897420345051,304.84385413261504L725.7489031933593,302.27131668861216L727.1235414257812,299.70032232901366L727.708799469401,302.0529445315787L728.1506932313368,308.08218387934943L728.4630466427951,317.5100547547855L728.6809252853733,325.1554360203539L729.4606624392361,330.6683420687813L730.3596225705295,326.83225742889306L730.9813623057726,328.7332747478567L731.6811903938802,329.0119638870893L732.0116835004341,330.47884760905396L733.5879488270399,327.1911212943106L736.6698088465712,322.28399467286584L736.6752709852431,323.4324308383782L736.8773701161024,328.0563465321301L737.6512405284288,326.5284859715741L739.2377557942708,323.6660338507834L740.3664629188368,324.60282198076453L741.5555907378473,323.0079299539093L742.858277094184,330.2773979745004L743.074807060547,333.38499336942544L743.358096499566,333.0770423652147L744.2223956521267,329.6484748241575L744.2365567523872,331.3573726272661L744.2699364887153,333.1507680910599L744.9252582617187,332.6629537260988L746.0108077473958,320.65424557377247L746.2854656586371,323.55826682116646L746.7732818457031,316.1988817923648L747.5471522580295,320.61905213848564L747.9779868749999,311.02574010185185L748.2525773524306,316.4414840528937L749.2951715006511,318.32295636202355L749.9935834787326,325.84324135225927L751.931294031033,324.37623722137215L753.082861217448,322.79105704516667L753.771427859158,329.19529534225177L753.8992149305556,331.0994031434669L754.2253922732205,328.56168847358686L755.312829905599,327.16611821559616L756.6059406608073,320.6879728492347L756.642894389106,326.8819257284204L757.586765438368,330.10501995799893L758.297922406684,333.17167699669835L758.3114766026475,322.15561152237495L758.7145284895834,323.07635524431515L761.3151134016927,326.12134070639553L761.6091922504339,325.7235759258835L761.6696803786892,331.00914868087216L762.128972063802,331.2313129288617L762.31151538954,331.137575242626L763.2942957476129,321.96712081320555L763.4512142252605,325.29554299245063L763.5212779546441,323.2464808813125L765.0653099197048,326.7611568945737L765.1925575206162,330.44277121515455L768.6483380208333,329.1193649031945L769.081397953559,331.9652570981478L770.6184842361112,334.3058402950545L771.0775061859808,333.22102084464024L771.4595187239582,331.447041269621L773.847215095486,326.9531707548856L774.1399452680122,324.0915712297286L776.6175309092881,324.1276413394302L777.1139111903212,327.24534684646517L777.232796998698,321.05902612014694L777.2977357584635,320.6890657771429L779.1576951269531,319.0089467838863L779.2000435601128,328.71286963498295L779.3031498567709,335.30763901625875L780.5301754774306,333.7042813876748L780.731667703993,325.7473773087197L781.4171998242188,330.87277710581276L781.5250264876302,329.5904602636597L783.6342212207031,329.33422953009415L783.8295769704862,335.3729595813905L784.0947267144097,337.00972749609497L784.1534615635851,341.44206503346436L784.7035191579862,339.7182872992416L785.0897800260417,342.55045104280197L785.6453671929253,344.52730095301536L786.841845297309,345.0913578639798L786.948390718316,344.0209190325015L788.051675296224,345.5844436222492L789.8008409136285,346.83749668187687L790.2287084429254,343.64916650809784L790.7426889485678,343.47037720568727L792.1153716004774,345.2056957701174L793.0280207953558,346.34456719095124L794.2770972721354,345.98019701655573L795.7058174207899,345.4095524172461L797.2909165766058,345.0673399403067L797.7768446169705,345.29484209198364L798.5819368836806,346.0016825107213L798.6803902473958,343.1152524127759L798.9389314778646,345.0086316292947L799.0369128049044,342.6666478573065L800.3257077962239,344.65918118661966L800.3567947829861,346.34062912758293L800.6139199034288,346.0240493716685L800.658695953776,346.39540328052635L800.9250595062935,347.1185427857319L801.3908248372396,344.96394235519506L803.7769702311198,346.3049074607833L804.829072546658,347.44251088283244L805.5086030577257,347.1598009802625L805.7836655718316,347.5010688854735L806.9204647536892,345.6534518831285L807.5733589095051,346.39476057500246L807.664259686415,344.53975217467206L808.0166013476562,346.318465102781L808.086934812283,346.36938344879934L808.6587735275607,347.53173350968603L809.4649447352431,348.2700711255322L809.6926687141927,347.9278502071941L810.2756340082465,345.2232947020309L810.96979765625,346.62035733562044L812.1231855555556,345.54819846556506L813.2789336382378,344.7917452096242L814.9353103320312,344.67079338758657L814.9497411675347,343.04019231708094L815.442884625651,345.0297680832569L816.1118280284288,344.4040789610013L816.9719462847222,345.48404770090724L817.435553733724,346.0043136664069L818.123850640191,346.081728986529L818.9714262076823,343.86078621467703L819.0912560894097,345.9295076288214L819.6918890418837,346.94160199304275L819.8720721842448,346.84083394474544L820.3896266818576,345.91946098318465L820.4524075596788,346.07978317103505L820.6475610080295,347.3491967210171L820.6642171592882,347.7342915194963L820.7690093012153,347.43936361992706L820.8176965125868,342.3718334192192L821.6876601052518,343.14859010762353L823.5235456032987,345.51842914846696L824.4129975672743,346.400480242161L824.7012771082899,346.16156876133135L824.7691829557292,346.9838046310704L825.5788607215711,348.06343591209503L827.0127058398438,347.6706683657673L827.6558220930989,348.11080534928243L828.4261185134549,347.65818473643293L828.4913270084636,347.92747877117785L830.7796933767362,348.3200964711258L831.4348802821181,347.2681688927216L833.854810015191,347.4825398942645L834.689910327691,347.64258228641694L834.8444686219618,348.32176246492713L834.8465590700955,347.3350004345328L835.6946066742621,346.5790530443798L835.7745157400174,346.4818815840846L836.6787357085503,347.61987414083586L836.9561584060331,346.4503588093204L837.5103294628906,347.62403986604335L837.6166051486546,347.7381679089541L838.1598519281685,344.8023062309898L839.2170792133246,344.22846923492443L840.4999400292968,345.7573364214462L840.8131700802951,347.2615779040433L841.0228217979601,346.1601654554506L841.0680024511719,347.0540706350134L841.4799556011285,346.43801764436915L841.6967553027345,347.726243270421L842.4756832508681,347.78635265346486L842.6203962087674,347.26527161123875L843.533315138889,348.21476672609793L843.648087484809,348.3792172853755L844.4041553710937,348.7031279234842L845.1353401812066,348.82510610466335L845.7083927050782,348.55895229172137L845.7183054752604,347.9450468868663L845.7590354969618,348.6083984084548L845.767532157118,348.61611507123115L845.818714419488,347.7308051372192L845.8606582497829,348.5223156489036L847.4412393402778,349.0628464081351L847.88812320421,349.07594116078917L849.2933763867187,349.19574918907233L849.3153598090278,347.6534534362388L849.3305324164497,346.4127147942333L849.384951501736,347.71023526869567L850.0335298936632,347.17485430740356L851.9430531130641,347.90749089042L853.8749643576389,346.6836137297929L853.9200775770399,346.65833488947123L854.1718754264323,347.10735995531206L855.4284370562066,345.1369787689936L857.5461958832466,346.67089000690225L859.4278015049913,347.6240317400691L859.5040691449652,347.8205808845981L859.5255130967881,347.49791578590657L861.9622338487413,347.8607549520639L862.1008777636719,348.54125135728515L862.5083128483072,348.9013241954353L864.507050999349,345.4834628989439L864.5655161132812,346.26929644759116L864.6135289865451,347.3935943650093L864.9260846994358,348.05248277492313L865.6437827473958,348.4009838321338L866.0433280761719,348.05870513935326L866.2355818706598,348.3514100667541L868.8603080870225,348.4427156956529L869.47449523546,348.8038224917905L871.4662202701822,347.22106237255355L871.5648085015191,347.6252535459776L872.2427880349393,347.5245466473296L872.886308891059,348.10256384304506L873.7779187369792,348.6691992248536L875.3865522927517,348.83917761147364L875.5051009320747,347.57520593692334L875.7034912033421,345.9264723416862L878.8096273947482,346.29243063719537L879.645941515842,347.5790970101974L879.7583536783854,348.2636086441878L879.7666480371093,348.50959625817035L880.8980525141059,346.5260388995245L882.8236249804688,346.9595929820513L887.4180928092449,347.6327008670668L887.5240987597656,344.8334797343605L889.640576344401,346.0900278295626L889.9095023817274,347.4118879962843L890.0449094737413,348.2252325536465L890.0991936914062,348.8319008221147L890.9074553472223,346.4136140499595L891.2799597178819,347.7034375453802L891.5713412141928,348.457325454066L891.737228388672,348.9709426452333L892.3967984917535,349.01802437622973L892.7095565060763,345.57342848438935L893.0838815896267,346.53246313206927L894.1586416655816,347.1393873260829L894.3483329752604,347.66344257367587L894.8912425857205,348.088834110381L895.3310458995226,347.84693616980667L895.5544541145833,345.2161975092471L895.6358467241753,345.72836502979584L896.8414283930122,347.0423310155902L896.9789933669705,348.1227186662341L897.8612299131944,348.6344371274669L898.5137868999566,347.06897499750926L899.1989144173177,348.04981481756425L900.6727477853733,348.7364445803752L900.6873134884983,348.1605333276419L901.3121551790364,347.37018969965794L901.5104780164932,347.84284553810215L901.9514277050782,348.5395732374995L902.3980418337674,349.0163536771296L902.4448408984375,348.11278450063634L903.386891234809,348.5559010563892L904.4783074620226,347.07720934979267L905.1475206000433,348.0747065295586L905.8733107052951,348.75632768020876L906.2263941384548,349.1147216903977L908.8149083984375,339.0127142476516L909.665855656467,343.025323873134L910.2989242719184,344.025952786402L911.4907494433594,346.16952935625915L911.9969750607638,346.7198558365742L912.0184864463976,346.7712623724618L913.5401978200955,345.6913624772841L914.1897202853733,347.112052420762L914.4032831640625,348.0219925879741L914.505984857856,348.287780244673L915.1954955729167,348.6942190505404L917.8025541308594,348.3320927029777L919.2438844021268,348.3721042037558L919.5630486284723,345.75499235255273L920.1784495855035,346.43408063045285L921.1369537717014,347.44264711392026L921.4694024587674,347.3876917911851L921.8210697819011,347.64020504012296L922.3146852766928,348.0388178735014L922.9536206336807,348.66597214653257L924.2162513064236,346.93957695905544L924.7746706933593,348.02328956324425" style="fill: none;" fill="none"></path></g></g></g></g><g opacity="0.2"><g><g><g><path stroke="rgb(255, 112, 67)" stroke-width="2px" d="M144.90163770182292,-185.31557731969014L145.15930229275173,7.973765628678464L147.42035796766496,-66.20425634724751L148.3980133561198,-102.23058395726338L148.5523693489583,25.35109782218933L149.70090201388888,-148.99600379807606L150.78260777235243,-18.174845508166698L152.1753856998698,13.136916058404111L152.5729754481337,20.08621818678722L153.1094788465712,80.38813895838604L153.48211808485243,75.82133546897344L157.1327822981771,94.19876944167275L157.3114144628906,-55.66955346720562L157.4634102723524,94.6830665894917L158.1685656315104,112.1745351638113L158.47289441948786,109.99225269896645L158.96462176757814,77.81659541811261L159.03745028320313,85.49612320320949L159.37967687282986,58.17274679456439L159.50146233506945,-30.977477278028204L160.03479634440106,47.82651099136896L160.13817237630207,175.38145233903612L160.42807032877604,119.18396313701362L162.26233741536458,120.20472214051657L162.30906904622395,-90.97636122362948L164.040094968533,46.08003657204766L164.16376857747397,0.5157853705542548L164.2732810861545,76.44082748889923L164.84370369140626,82.05708859648023L164.89461621853297,92.85499051639013L165.64131080512155,173.85559450728553L165.87132753363716,88.32311330522809L165.93889621202257,97.433783863272L166.77399652452257,134.63522986003332L167.12168525282118,100.79742842912674L167.66108830512152,68.62751729147777L170.55966322699652,166.94478190796718L172.06991085286458,-16.452447107859996L174.51276808159722,112.98328074387145L174.5572743967014,129.4871670688902L174.83017902886286,175.45844744784492L175.16613427408856,161.5530377030373L176.12180624023438,128.45112781865257L176.57132002278647,119.82570139850893L177.34424636176215,25.019009266580866L177.58397355902778,35.369193536894656L177.74068973524305,54.2793335063117L177.76334749565973,184.31686552933286L179.064752609592,159.26321568659375L179.12645454644098,167.85450231177467L180.11651775607638,166.62102365493777L180.95411311957463,142.8120718938964L181.47591594726563,258.33129095605443L181.8785632313368,210.293734397207L181.8919825596788,186.83504056079047L182.1144467013889,212.1930754865919L182.3597709049479,86.00038739613123L182.68615054904512,112.64482006856375L183.44801774305557,229.610839341368L183.46818045247397,237.9072589363371L183.52947778645836,220.02449887565206L183.61761377712673,191.93828985520773L183.67978775065103,201.7537136418479L183.74209659179687,145.4459081207003L183.94817431749132,214.59239523751395L184.49560199327257,141.10153494562425L184.9532752669271,200.78706147841046L185.0781626844618,267.27502642359053L186.71653455078126,157.87022537844524L187.4995759613715,149.85530259779523L187.63936625108508,210.76137093986787L188.789787062717,175.0599251304354L188.83881144314236,231.52706574542182L189.15763850043405,226.95740523508618L189.90109626410592,183.80671073709215L190.38817067925345,183.50731741530555L190.8502945844184,174.10227739810946L191.04106483506945,171.24873947245734L192.62447814561634,150.07654516186037L192.82387992404512,225.79437300988607L193.75399447591147,6.145496947424746L194.4274559440104,169.2194360324315L196.28417848958335,245.8013201015336L196.40886360568575,187.57085185391563L197.39575742621528,223.96331953576635L199.01160639973958,225.84113666415215L199.5789270496962,257.6986855311053L202.07829381184897,196.61775306292944L202.19556120876734,235.25661764826097L202.3538283626302,190.7293205857277L202.6669909798177,277.6587566137314L202.7984869108073,198.7624127353941L203.0111731499566,202.5831485475813L203.09472364149306,247.57752840433807L203.18252246310763,216.85366309540615L204.19396219075523,198.36106549842017L204.44097223958332,201.6002370459693L205.28605275607637,288.09248868269583L205.50952840494793,189.14718907220023L205.77144132595487,241.91878917387552L207.0634057063802,220.04320594242643L207.19631774739582,264.73560029268265L208.84440008246528,178.96120325156622L209.57518028971356,196.05233578171052L209.9558441514757,238.22704464622907L210.47056642903647,237.20144636290416L212.46593288953994,228.50551733374596L212.5941245638021,216.81780587775367L213.93389951605903,261.860795216901L215.35290919596355,230.4369196551187L215.87538636176214,247.35821192179412L216.0292028841146,288.8706015412297L217.14489528320314,235.1457957327366L218.78852698676215,297.24393197894096L219.16022215169272,241.14561189923973L219.21713628797744,282.58796036669185L219.4690690049913,257.5386522327151L219.494289250217,237.54322150349617L220.09202254882814,164.16705134085248L220.9184238997396,172.42621730906623L222.64884291775175,269.19421417798316L224.4125068044705,233.02839813913621L225.5296827473958,220.77046222346172L225.8382598654514,199.17276440347948L225.98250078667536,247.03908428975515L226.27738884114584,262.54610304747314L226.33126845594617,185.63321384361814L229.84052396809898,269.9540854394436L229.8865812608507,232.75270364539966L229.91557779947917,238.74613164152422L230.91413766927084,248.37454896313804L232.62021308159723,272.8720427666392L232.6304630208333,289.71992323866914L233.11409831163195,257.24058309197426L234.63102188476563,229.50659017903465L236.23156338324654,260.5298407844135L236.90846397569442,254.72243213653564L239.10087203125,251.8749372916562L239.42239644097222,224.43855607509613L240.68536428276911,276.40255019494464L241.28700874240454,274.88538380605837L241.97072014973958,259.2682814640658L242.65328518229165,258.4425783412797L242.7253044921875,257.3905526144164L244.79397150499133,261.396288556712L245.10821306315108,269.91422357729505L245.18421096788197,265.800257904189L246.0609179416233,236.6455310838563L247.78688632812504,241.22617025886268L249.3075187608507,304.420832740409L249.75858352105033,245.0123409330845L250.19744276150175,260.58075353928973L250.72996756510418,292.8250194489956L251.66136335937497,225.86812588146756L251.86352992404514,259.38299566933085L251.99684656792533,265.5937017117228L252.75938810004337,277.50151613354683L253.50945437717016,236.69205397793226L254.49156039713546,273.9082665996892L254.58799074652774,273.4768323642867L254.62467473958333,302.3672446225371L254.6800378982205,324.06585506988426L254.72231889756944,289.0599514054401L255.16239194661458,251.85055630973406L256.0552156011285,250.6126877920968L256.54667321397574,272.35775492446766L258.7125123480903,281.17877492308617L261.2409430826823,280.1803183385304L262.62684276150173,288.1158624844892L263.0765588454861,270.8866218839373L263.3933628884549,294.90834546302045L263.5876396972656,293.6979998477868L263.77692640407986,214.17851241997312L263.7880529828559,290.86214977077077L266.27959742296014,291.21656080867564L267.2195573111979,285.2625091416495L267.629959483507,319.5301758540528L267.65322414822054,295.0363737068006L267.7172862684462,268.68022327337945L267.7710984494358,290.38690119343147L269.6624819737413,290.70113738094057L269.778535562066,227.60016271471977L270.25124657552084,259.5316249600479L270.2770737250434,223.84031515462058L270.5600259950087,281.1519783139229L270.6216604980468,293.759518089039L271.4181212369792,277.29833860908235L271.4494105251736,284.56169234216213L274.72925621310765,275.58502489328384L275.5557249978299,256.75859724198074L277.8049797558594,219.58472631233082L278.12994328993057,271.1584642146315L278.93294510850694,187.29819896391461L280.6549349001736,280.22325390577316L282.1036154568142,279.2509920299053L282.25298134765626,325.3689876560654L282.49122500108507,240.15733144538746L283.2888995486111,303.93555650115013L283.7415827202691,309.06738001746794L284.69624317925343,125.5905596954482L285.58407673177084,274.6768614053726L285.82279242187496,313.68018876654764L286.87489473741323,292.8244135358504L286.9015310926649,289.7210668495723L288.0814204796007,291.2559893024819L288.5334967469618,283.45387445390224L290.7312995073785,263.09841494900843L291.4260026258681,309.7758730543511L291.4632935232205,309.17361545137L292.2521342415364,268.7768082363265L293.536613468967,299.065864654524L294.2624710080295,303.7757077855723L294.83828831814236,296.5695988003697L295.5558514984809,231.92409534965248L296.77754984809025,271.47569786650797L297.1967184157986,267.31776938268115L297.65115486653644,303.5014779163258L298.3478135655382,180.44735170262203L298.515791188151,308.43524006221975L300.0517985297309,288.1672447217362L300.4362386848958,282.6946652829647L302.71658042968755,281.06034498555323L303.1910447222222,278.6760887971946L303.57717072265626,200.98923583541603L304.0109724273004,277.46955923097477L305.144062749566,297.9826965970652L306.07626774956594,108.6260991266796L306.68222797309033,314.55891530854365L307.85894797092016,302.60639171940943L308.4669986425781,304.4507030546665L308.56437306532115,275.3118744322232L308.6966107682291,263.6185853651592L308.8260836848958,280.2127888628415L309.26258274197045,324.07618769471134L310.4107782378472,249.1971703554903L310.443955672743,296.6860143776451L312.1809157703993,292.7295660589423L312.23263750325526,293.4701323658228L312.32407775065104,316.22350317452634L312.38267773220485,289.9046785959176L312.3987944129774,287.5039022458451L313.40133287760415,297.6137516690152L314.13002263671876,313.05246274811884L314.6741460557726,259.7820556844984L314.937340219184,312.6134485793965L315.8785813498264,287.2276259149824L315.92531298068576,281.4808968603611L316.2112997721354,290.9335752938475L316.93931519314236,321.95985747128725L317.5082542545573,295.5633897376912L317.5331373307291,308.1511631011963L318.5014868532986,331.69366756613766L318.99449544379337,282.9994315696614L321.28542429687496,289.3943352081946L322.71650462890625,320.2117880157062L324.0790722092014,274.3986068282809L325.129623547092,275.6070062986442L325.80638927191836,307.74442684863294L326.1276439463976,298.8933960923127L326.502238765191,285.19835056364536L327.597228984375,311.5155861249992L327.81423098741317,262.4461955939021L328.5996325813802,269.1506847356047L328.9633031228298,296.4544953661306L330.7747775813802,274.45146171535765L331.4856648144531,305.9435406263386L332.34605280598964,275.2116860917636L332.7435751204427,299.32422441457L333.43018618164064,276.48171214546477L334.75822765082467,325.66390083198036L335.609512077908,280.4382848569325L335.6292027506511,303.9875446515424L336.2269360492621,310.3612453426634L337.7232248763021,274.22035600883623L337.7891077094184,314.89644905711924L337.90974679687497,279.7396870638643L338.5113238226997,307.67878358278955L339.50428668619793,306.0321484016521L339.82136046440974,299.68573386541436L340.1754554047309,318.7241207691176L340.5943542371962,270.771522462368L342.1211905805122,327.1514436858041L342.62593265407986,309.073242528098L346.1218362717014,295.9040934954371L346.1234546831597,275.7912038947855L346.35151583116317,284.22372121257445L346.40047277777774,327.71063731610775L346.4685134928385,303.0233642927238L347.3540542957899,263.1560609638691L347.9819979416232,251.29119013462753L348.83638432400176,306.840825766325L348.8567493348524,303.14896888392315L349.58624829969614,191.23106482199262L350.75426933593747,322.47445830170597L351.6216030099826,246.3865599717413L353.76572845703123,302.89762728341987L357.8583538661024,239.38103231361933L358.0160141156684,317.31990100443363L358.9671005826823,282.125283483948L360.8789165516493,283.0154019956078L361.1601155425347,314.6233989128045L361.30907683051214,314.2099173622472L361.4701762044271,282.68751470531737L362.33083393120654,320.1265990350928L362.5732584809027,296.1275671039309L365.60312703233507,285.81994522256514L365.6924768315972,309.09562520044193L365.93031588216144,313.12863927228113L367.4362477441406,280.4197864489896L367.83167961046007,292.34835038653443L368.4956329112413,291.63125819819317L369.5854981608073,309.89512558920046L369.8323059082031,281.2681370803288L370.612312797309,315.52769418699404L370.6339590505643,295.8974766028779L370.77793023654516,328.3889972088592L371.4698011349826,294.7856139434235L372.8843601833767,295.1850150355271L373.3191733951823,309.2726882696152L374.0725439290365,311.9369044197457L374.8553156043837,297.78784536251L374.86374483072916,310.41789621540477L375.6827284624566,265.3022855775697L376.5446674316406,319.3615574485489L379.4656978125,316.59577861854007L380.0114396430122,312.36310212101256L380.2554151703559,313.8134455191238L380.33228971462677,285.5125546497958L381.38102033962673,316.2366205922195L381.4506120323351,304.31618632376194L381.5002433170573,305.06868631073405L381.5166297330729,320.9801821878978L381.65075558268234,278.8633279970714L382.856944155816,296.7069163748196L383.2566917860243,290.3014152752502L383.64942629991316,327.2242535799742L384.8731476638455,325.1081641167402L384.9328265863715,300.65834083088805L385.4513251573351,293.1057578687157L385.45301100260417,292.3700188036476L386.576053687066,317.1056063781892L386.81308353190104,322.6889916818057L387.3058898209635,287.8316731687103L387.7257327267795,288.6247091463634L388.4956919780816,314.6043066297259L388.7122893782552,313.43993818547045L389.3955287489149,327.056521974504L389.4934426421441,305.1446421380554L389.6981042578125,290.5259000765426L393.2720962282986,325.66610780039L393.9235068402778,324.8851860729711L395.44933167643234,316.1188848465681L396.80717888997395,315.142867111734L397.1977555219184,279.67227421062336L397.39924774848095,329.95499377697706L397.4948688921441,319.702818967402L397.6158451486545,311.46958889067173L397.62258852973093,327.74948196645295L399.066278984375,313.49336688433374L399.6264516503906,330.8895205057093L399.9684085047743,328.7538070806435L401.60887081922743,335.13121848819515L401.7848056315104,286.48298674821854L402.08090749457466,284.69087222218513L402.10356525499134,305.8039438554219L402.16418825086805,299.1147750871522L402.2316894954427,312.71808697070395L402.3908332888455,296.81592857624804L402.4731025379774,306.65928857028484L403.0887732302517,302.805388041905L404.885142515191,299.53728113217016L405.3007370909288,330.1641561985016L406.78374145724825,299.06623783281873L406.9979112402344,320.5429034988795L408.79691044379337,296.69097805023193L409.8398417610677,296.72643400090084L410.4995467317708,313.29209537804127L410.72659637261285,319.7500400660293L410.75141201497394,265.484356458698L412.45755486111113,293.88429607025216L413.299263687066,311.84371417547976L413.33176678385416,303.8795917949506L413.4426954025608,309.19772758441314L413.7225457172309,322.2981235321079L413.9798057052951,315.8393341771194L414.3150191786024,304.67825353571345L414.9943473882378,307.5045253698315L417.7382291482205,322.0994863435626L418.544063186849,312.2476335338184L419.2817890766059,302.21525672716757L419.37100400824653,319.0778917861836L419.6705449956597,284.47492638230324L419.732718969184,291.09395769451345L420.3369259136285,285.37455893414364L421.1056713563368,274.6858417604651L421.1513914800347,308.260363898107L421.44742590928814,291.5174869703395L422.60735488823786,315.47202641836236L422.92759805555556,312.46476311130186L423.0344806456163,257.96048816187044L423.83033448025174,305.75852043288097L424.1807205609809,308.76760147937705L425.20362403645834,286.6086836308241L427.59159014322915,317.57754249657904L429.16954131510414,325.4756183379463L429.3944330740017,321.71854955170835L429.74016622178823,308.91842570049425L430.74095140733505,322.1913122800844L430.77972584852427,274.36185879792487L431.9766759895833,260.31778723427226L432.452016921658,310.562805761184L432.7255284581163,297.87303434312344L433.14564109917535,289.50504075629374L433.96738951714406,297.6867742346866L434.2093420301649,312.64882828933855L434.5539288031684,325.68617716857364L435.27425676974826,329.94642271420787L436.30235264865456,263.50558858258387L436.69481742730034,296.97648753438676L437.40408624891495,325.1653346302254L437.5591165798611,295.3177742170436L437.9453100141059,291.77723110147883L438.46353884982636,297.71259175240993L439.81417064561634,298.72111211291383L440.65608177300345,317.1626805875983L440.7212902680122,314.8778021803924L440.73754181640624,343.11475416538974L442.1581699077691,335.32125351578L443.10096201605904,319.64563039690256L443.30333088216145,300.9169694398131L443.44399781141493,277.9835581609181L443.8102982714844,332.3730727593814L444.25327097439236,309.37069371768405L444.5757394574653,303.51953894325663L445.86244400065107,323.5245559407132L446.2500535449219,313.19705930565084L447.28772502495656,317.64797689020634L447.4606253157552,326.6232399046421L448.991507687717,311.0462120962994L449.328811609158,308.9724241984742L449.8375322775608,335.9266951722758L450.8414194184028,335.07966069664275L451.8371470681424,314.6636018518891L452.15887377929687,319.7540406978556L452.85526274305556,321.93902569583486L453.6387087565104,306.12010211178233L453.8673768088108,273.6247795011316L454.70389323133685,298.43323114088605L456.16545364583334,340.01420230365227L456.75907348198785,343.6293665322342L458.15711124674476,318.1001887300185L458.1636523263889,311.1003831390824L458.2573853233507,313.4057983905077L459.02896298611114,318.9076000973582L459.3316733626302,301.1822149412973L460.09839579101566,321.17203194541594L461.52259787434895,297.6535372904369L461.61228484266496,304.6241226196289L461.7031181857639,299.3859272386347L461.71127767686636,322.69375472090076L462.33342201497396,314.076026607837L462.41306134548614,311.45440093534336L462.4164330360243,303.0956124131169L462.7834078342014,314.02631364124164L462.97046922526044,314.75568058661054L464.0620877539062,306.6222516277007L465.06867224717877,270.31708760346686L465.76404970377604,298.3140387960843L466.7032003862847,322.3790831587144L467.5362776844618,290.2882577308587L467.9242918315972,306.33918987214565L468.69546489149303,330.14734913089444L468.74314059570315,311.91592216917445L469.80650435763886,333.70796061147536L469.88985254774303,316.3588545407568L470.6758610460069,295.02393844297956L470.801220500217,324.88213644389594L471.43273813802085,316.48548838176896L471.51008471896705,321.2442941101534L473.8365511903212,289.42150098298276L473.84895901150173,318.21068361295124L473.953413984375,323.60011451372077L475.1577144108073,336.96877850645353L475.85902604275174,330.96993039654836L476.03893944986976,316.94981647815024L479.40152642361113,318.9366959663374L484.00368170681423,327.2860045560769L485.3216081043837,311.92946091720034L485.5008471733941,338.98941758913656L485.8877149457465,333.5042263290712L487.5509698882379,268.9640313855239L487.9337916319445,325.13080359995365L488.02617595269095,337.6785796737032L488.7692291134983,302.59208253877506L490.72737211046,337.82858330383897L492.00686123589406,328.66025168342253L492.0136046169705,292.9437102100679L492.69421406901046,325.4963477903179L492.74087826605904,313.93604863328596L493.51919930989584,318.03540216918503L493.52472888237855,337.51766057844674L494.43589453342014,326.8045864988651L494.5251094650607,305.53236636093686L496.72770002604165,329.54717009088824L497.36427519965275,307.0978533199855L497.58599756944443,326.9142286894577L498.4452391861979,326.54428661295344L498.6484172580295,310.5815890686853L499.47434657226563,326.4515578257186L500.06135789496534,307.28913327838694L501.7080915538194,331.5478130366121L502.7380081456163,326.5013610773853L504.01493478624127,319.5854182796819L505.3029205718317,332.4346391526716L507.0177623795572,332.16946387290955L507.9443029394532,318.2132075822779L509.3098376074219,317.30509826540947L509.45509003580725,323.26919364503453L509.47619681857645,331.32071197458674L510.14763527235243,245.61672926374845L510.45634725802955,293.0898275694677L511.2484922330729,326.196315910135L512.3774016590712,320.7028725945524L512.7074901627603,325.53021673006674L514.5861961306424,283.4913648281779L515.4885953862847,319.82149167146L517.9706316590712,318.39197202346156L518.2547977376303,331.3785425722599L519.3795937011719,326.52773836255074L519.8994409483506,307.4309249797038L519.9547366731771,326.3392371780106L520.7612450499132,282.8039463332721L520.863811876085,321.62651696269L520.955791593967,314.16138412058353L522.1234080273437,343.20000985663916L523.3126707139756,330.9715495088271L523.4247457074653,339.78293709350487L523.4710053016493,330.94210855024204L525.9380712684462,328.5012977932181L526.5285217154948,315.66489138134887L526.8080348611111,326.9809393254774L527.4210082009548,319.8034326508641L527.460929016927,297.36519084870815L529.9848416861979,322.1205608855401L530.4576201334636,306.7063050227506L530.5859466753473,327.3260349503585L531.2739064127604,322.1294649999057L532.2018630826823,330.52722256524225L532.3980954720053,335.21441919090495L533.143845985243,323.5990230675255L534.4668973524306,343.0063383470156L534.6277269911023,251.35077025634902L537.4366823784723,313.80746664106846L539.7818954492188,286.6579592164074L540.5374912988281,316.18142631862844L542.4475539887153,316.62637121336803L542.6103392078994,305.5435817731278L542.6311762554254,312.5599596904857L543.0274847612847,336.07543380824586L544.5603901475694,338.0659467689693L545.65066,331.3520709893533L545.6538968229166,322.948735812945L545.9884359581163,329.3853611860957L546.8273799978299,324.9742232039571L546.8323026660156,337.0045604865466L547.520194969618,331.5146182253957L547.9956033355035,309.53008900157045L548.2517169487847,316.8822370991111L548.6256374294704,328.52975364135847L549.2332160644531,289.3143225716693L549.745578158637,326.7027068180697L549.9547578396268,310.11523256770204L551.1917636642795,307.2568433242185L553.0628496115452,331.02944832188746L553.2520688845486,341.87763100117445L553.4462782595486,326.83548004393066L553.8498021831597,321.7272771086012L555.7293173567708,330.1791996977159L555.7328239149306,328.42703129989764L555.7559537120226,322.711902020233L556.0208337207032,320.5661689585873L556.3209141786024,338.7549422431205L556.5361629025608,325.3285078427621L557.5640564800348,326.97379877950465L558.8270917556424,340.7693115291851L559.0881280371094,296.63686719749654L559.3543567220053,337.07858421334197L559.516669904514,316.6367580092379L561.2218686773003,287.70919444731305L562.3581958224827,322.5675522418959L562.6575345084635,321.6745165192655L655.499191359592,336.8950547267284L656.7018733745659,339.72583780490925L657.131426749132,315.2788243911096L657.6636818174914,314.16383987452303L657.9927588140191,299.31144406114305L659.0226079720052,318.54533225191494L671.3441813085938,300.0363248416356L674.0332393804252,322.48315977624486L674.1944736219617,326.26933847580636L674.9321320779079,309.0061065490757L675.5421383300782,321.4980031858598L677.739603921441,337.08929202279876L680.1246029405382,314.3551158202546L681.6407173079427,312.0677776464394L682.359224561632,307.29620360263755L684.018568343099,308.8935872742108L684.9791629774306,321.9467902119671L685.1904331065538,328.9536540891443L685.4449283083767,302.7512731764998L686.4676294824218,312.0674726835319L686.7054010991753,295.95793549929346L687.7455676302083,332.8242593620505L687.8783448036024,321.59311549897706L689.0926928678385,309.5967274095331L689.6806482638889,334.3466963927661L689.7149720735677,337.8177561174546L690.0472184592014,323.33210428271974L691.2623757291667,326.72268590118205L691.803194891493,327.43317122863874L692.0116328005643,323.7255866868155L692.8016198936632,328.4316839905722L692.9671698990885,340.9757724207427L692.9893556228299,334.4714001395873L693.4290240690104,306.71646510277475L694.126289672309,313.33326135788644L694.5318366102431,314.1154551016433L695.1528345735677,335.2990965561143L695.280689078776,341.4437149294785L695.6958116178386,301.9063493652003L696.0920526898872,299.78234691705023L697.6722966113281,324.1987988342132L697.8836341742622,340.71532005337735L698.1782524934896,318.62101722402235L698.3263371419271,300.4050530855145L699.6748784895834,328.72456675555026L699.7817610796441,338.5120653696358L700.8319078146702,321.8344535135797L702.0593380381945,319.47165708350286L702.5751392567274,313.45844461875305L704.5937703819445,341.26651542953084L704.8353182921006,327.17553776183297L705.0729550412326,327.72807036020924L705.1678344129774,319.5751137435436L705.4372324869792,318.9500100048525L706.2545977072483,334.10158245584796L706.5032936013455,324.5131774715015L706.5210961273872,325.64126335510184L707.6870941493056,305.21922161962306L708.1457789301215,339.8086292152958L708.1814514160155,329.378902793995L708.391238001302,327.63891485546316L708.4833525868055,332.6873209849L709.172661000434,325.606270867799L709.8650713693577,332.372886170234L712.4992383192275,341.6195902483804L712.8136147450086,310.06023491493295L712.8389024240452,331.80858641756436L712.9560349533419,314.4518813533442L713.3827561078558,308.0602841547557L713.3992773914931,314.1179469696113L714.2848856282552,334.00059358775616L715.3557345431858,287.90174240938256L715.9544793489583,312.4237014608724L717.0806239887153,328.8295743124826L717.3535960546875,335.0899983373072L717.8694647070312,333.2132415569254L717.9866646701389,319.764636152557L718.4150042361111,330.22254255094697L718.5682812879775,325.94535350693127L719.4512596061198,310.69419662228654L719.7574091069879,339.9063638081508L720.0925551464844,321.4887419438788L720.3339681890191,318.28808600774835L720.97404992079,332.7277365954859L721.2149234928386,325.0074481101973L721.3455427842882,330.27905097390925L722.1428801627604,312.0261140955346L722.3118692925348,336.6666555660112L722.5721638020833,329.49023231225357L722.5751983235676,319.2285775701915L722.7206530533855,319.9590680631144L723.3884500813803,332.39562597019335L724.2120192122396,332.84456347141946L724.2611784602864,301.43431092372964L725.1897420345051,280.6900718637875L725.7489031933593,297.815063302006L727.1235414257812,295.24674193561077L727.708799469401,306.1282518442188L728.1506932313368,318.52627608286485L728.4630466427951,333.8413939215243L728.6809252853733,338.39907460606526L729.4606624392361,340.218020852123L730.3596225705295,320.18723649531603L730.9813623057726,332.02629381950413L731.6811903938802,329.49472048346485L732.0116835004341,333.01984290885076L733.5879488270399,321.4959888256022L736.6698088465712,313.78367150894235L736.6752709852431,325.421798403774L736.8773701161024,336.0660802748587L737.6512405284288,323.8818641262395L739.2377557942708,318.7075785377196L740.3664629188368,326.2255642605679L741.5555907378473,320.245193492089L742.858277094184,342.86986443639864L743.074807060547,338.76809577484215L743.358096499566,332.5435971830573L744.2223956521267,323.7093714880092L744.2365567523872,334.31759450478216L744.2699364887153,336.25736023326004L744.9252582617187,331.81794195728645L746.0108077473958,299.8522757142782L746.2854656586371,328.5887298562697L746.7732818457031,303.4506574528558L747.5471522580295,328.27584995116507L747.9779868749999,294.4078170657158L748.2525773524306,325.8228547221848L749.2951715006511,321.5821187772921L749.9935834787326,338.8701831113015L751.931294031033,321.83503334437097L753.082861217448,320.04514384376154L753.771427859158,340.2889758896615L753.8992149305556,334.39777567344055L754.2253922732205,324.16575650445054L755.312829905599,324.748654981809L756.6059406608073,309.4662674878325L756.642894389106,337.61134137160013L757.586765438368,335.68819411524703L758.297922406684,338.48386432603L758.3114766026475,303.0731374493667L758.7145284895834,324.67130475171973L761.3151134016927,331.3959876543709L761.6091922504339,325.034551688603L761.6696803786892,340.1650315406067L762.128972063802,331.61615482292007L762.31151538954,330.9751990320427L763.2942957476129,306.0816888234445L763.4512142252605,331.0611704832741L763.5212779546441,319.69701263414964L765.0653099197048,332.8494208082557L765.1925575206162,336.8202124152865L768.6483380208333,326.82690697482656L769.081397953559,336.89502663803955L770.6184842361112,338.36029315526997L771.0775061859808,331.34185272561655L771.4595187239582,328.37408211507966L773.847215095486,319.16870652990684L774.1399452680122,319.134592817298L776.6175309092881,324.19012344202827L777.1139111903212,332.6459623969027L777.232796998698,310.34283120078703L777.2977357584635,320.04820551084623L779.1576951269531,316.09857672452927L779.2000435601128,345.52239719671866L779.3031498567709,346.7313652122393L780.5301754774306,330.92688046821524L780.731667703993,311.9641063085624L781.4171998242188,339.75120189094116L781.5250264876302,327.36917917643274L783.6342212207031,328.8903762921691L783.8295769704862,345.8334919653301L784.0947267144097,339.84500306418965L784.1534615635851,349.119939346831L784.7035191579862,336.73228980334744L785.0897800260417,347.4564396040514L785.6453671929253,347.95168030568L786.841845297309,346.06844005401115L786.948390718316,342.1666616031102L788.051675296224,348.29284414110174L789.8008409136285,349.0080858616691L790.2287084429254,338.1262120540653L790.7426889485678,343.16067114632045L792.1153716004774,348.21168475877494L793.0280207953558,348.3173663188437L794.2770972721354,345.34902026637326L795.7058174207899,344.42105876707603L797.2909165766058,344.474545649652L797.7768446169705,345.6889305186591L798.5819368836806,347.22610006667674L798.6803902473958,338.1152614780835L798.9389314778646,348.2884196710241L799.0369128049044,338.60976886429955L800.3257077962239,348.11072799204186L800.3567947829861,349.2533012438965L800.6139199034288,345.4756571168878L800.658695953776,347.03867753794685L800.9250595062935,348.3711942783557L801.3908248372396,341.2316563635L803.7769702311198,348.6277814415017L804.829072546658,349.4131135319559L805.5086030577257,346.6700794550457L805.7836655718316,348.0922269507844L806.9204647536892,342.452934999285L807.5733589095051,347.67888546748355L807.664259686415,341.32643161235114L808.0166013476562,349.39962356294774L808.086934812283,346.45758626676565L808.6587735275607,349.5452032872875L809.4649447352431,349.54904939997607L809.6926687141927,347.33504129400745L810.2756340082465,340.5383542914476L810.96979765625,349.0404057227674L812.1231855555556,343.690961515797L813.2789336382378,343.48138629086316L814.9353103320312,344.4612757505051L814.9497411675347,340.2155992058771L815.442884625651,348.4761916782175L816.1118280284288,343.3202349623399L816.9719462847222,347.35481322303946L817.435553733724,346.9055394099227L818.123850640191,346.21583093450005L818.9714262076823,340.01357933666026L819.0912560894097,349.51303051561786L819.6918890418837,348.6947927769673L819.8720721842448,346.66627945671127L820.3896266818576,344.3234214814646L820.4524075596788,346.35749974780316L820.6475610080295,349.548126203773L820.6642171592882,348.4013683015614L820.7690093012153,346.928477586247L820.8176965125868,333.5936526890312L821.6876601052518,344.4941194531109L823.5235456032987,349.62356016457284L824.4129975672743,347.9284048142976L824.7012771082899,345.7477166333369L824.7691829557292,348.40811485351463L825.5788607215711,349.9336168743071L827.0127058398438,346.9903005396149L827.6558220930989,348.87322843001624L828.4261185134549,346.87413700816353L828.4913270084636,348.3939607876486L830.7796933767362,349.0002047273197L831.4348802821181,345.44597740444755L833.854810015191,347.8538820116914L834.689910327691,347.919814189763L834.8444686219618,349.49826583425914L834.8465590700955,345.62569134363105L835.6946066742621,345.2695704067924L835.7745157400174,346.31355725122353L836.6787357085503,349.59115086482575L836.9561584060331,344.42447706019243L837.5103294628906,349.65713765282584L837.6166051486546,347.9358651198979L838.1598519281685,339.7166879145162L839.2170792133246,343.2344455860023L840.4999400292968,348.40570198498403L840.8131700802951,349.8672858274492L841.0228217979601,344.2522542740085L841.0680024511719,348.60252933403746L841.4799556011285,345.37086574254295L841.6967553027345,349.95775979205166L842.4756832508681,347.89047655742615L842.6203962087674,346.36263395885805L843.533315138889,349.85952055894137L843.648087484809,348.66408519406934L844.4041553710937,349.264219028842L845.1353401812066,349.03640164255296L845.7083927050782,348.0979098944393L845.7183054752604,346.88161511998624L845.7590354969618,349.75748273820085L845.767532157118,348.62948218653247L845.818714419488,346.1972354701055L845.8606582497829,349.8934021636794L847.4412393402778,349.99917564680385L847.88812320421,349.0986244208512L849.2933763867187,349.40328550036065L849.3153598090278,344.9818263671228L849.3305324164497,344.2634571466063L849.384951501736,349.95785270260035L850.0335298936632,346.24744575696866L851.9430531130641,349.1765936052626L853.8749643576389,344.56356422203993L853.9200775770399,346.6145458600617L854.1718754264323,347.88517933165923L855.4284370562066,341.7238048014364L857.5461958832466,349.3279930802195L859.4278015049913,349.275102392604L859.5040691449652,348.1610512606401L859.5255130967881,346.93898225429336L861.9622338487413,348.4892796278665L862.1008777636719,349.7200347477504L862.5083128483072,349.5250569260014L864.507050999349,339.56290535256267L864.5655161132812,347.6305490974337L864.6135289865451,349.3411486809741L864.9260846994358,349.19383592215104L865.6437827473958,349.0046714558266L866.0433280761719,347.465796146941L866.2355818706598,348.8584453781535L868.8603080870225,348.60087899817154L869.47449523546,349.4293462861928L871.4662202701822,344.4793412916895L871.5648085015191,348.3254098409255L872.2427880349393,347.35009808519055L872.886308891059,349.10382860283636L873.7779187369792,349.6507479463471L875.3865522927517,349.13362104621984L875.5051009320747,345.3857030908444L875.7034912033421,343.0704693379147L878.8096273947482,346.92635839499L879.645941515842,349.8079125306436L879.7583536783854,349.44934737629126L879.7666480371093,348.9357059501511L880.8980525141059,343.0900406334549L882.8236249804688,347.71061289549937L887.4180928092449,348.79868556406086L887.5240987597656,339.9845556957381L889.640576344401,348.26667125130604L889.9095023817274,349.70166762934866L890.0449094737413,349.6341408852521L890.0991936914062,349.8827961286962L890.9074553472223,342.2245599145868L891.2799597178819,349.93772196094505L891.5713412141928,349.76324057457634L891.737228388672,349.86065111299314L892.3967984917535,349.09958125451317L892.7095565060763,339.6065601908735L893.0838815896267,348.1937417294165L894.1586416655816,348.19072595724305L894.3483329752604,348.57123226486146L894.8912425857205,348.8257145318868L895.3310458995226,347.4279107754784L895.5544541145833,340.65912562182973L895.6358467241753,346.61556231948947L896.8414283930122,349.31843602923414L896.9789933669705,349.99420984248616L897.8612299131944,349.5208565384549L898.5137868999566,344.35721819315637L899.1989144173177,349.7488652162387L900.6727477853733,349.9258524208729L900.6873134884983,347.16291656744266L901.3121551790364,346.0011245080137L901.5104780164932,348.6615990943142L901.9514277050782,349.74647313208385L902.3980418337674,349.84225203430316L902.4448408984375,346.54758543534473L903.386891234809,349.3234854726387L904.4783074620226,344.51575978153517L905.1475206000433,349.8026114803007L905.8733107052951,349.9370594001874L906.2263941384548,349.73554628728226L908.8149083984375,321.5136084588511L909.665855656467,349.976128524926L910.2989242719184,345.75928265255476L911.4907494433594,349.88271937071113L911.9969750607638,347.673153619415L912.0184864463976,346.8603108526607L913.5401978200955,343.82071621077404L914.1897202853733,349.5730289895187L914.4032831640625,349.59822774101383L914.505984857856,348.7481883713044L915.1954955729167,349.3982687852944L917.8025541308594,347.70480280036907L919.2438844021268,348.44141374335493L919.5630486284723,341.22152537533213L920.1784495855035,347.6104248058317L921.1369537717014,349.1897267601453L921.4694024587674,347.2924959589062L921.8210697819011,348.0776187008513L922.3146852766928,348.72931114224986L922.9536206336807,349.75235413861395L924.2162513064236,343.94904540479183L924.7746706933593,349.9005403584784" style="fill: none;" fill="none"></path></g></g></g></g></g></g><g transform="translate(61, 377)" clip-path="url(#clip_1)"><clipPath id="clip_1"><rect width="971" height="23"></rect></clipPath><g><g><line x1="0" y1="0" x2="0" y2="5" style="visibility: inherit;" fill="rgb(0, 0, 0)" stroke="rgb(204, 204, 204)" stroke-width="1px"></line><line x1="121.380859375" y1="0" x2="121.380859375" y2="5" style="visibility: inherit;" fill="rgb(0, 0, 0)" stroke="rgb(204, 204, 204)" stroke-width="1px"></line><line x1="242.76171875" y1="0" x2="242.76171875" y2="5" style="visibility: inherit;" fill="rgb(0, 0, 0)" stroke="rgb(204, 204, 204)" stroke-width="1px"></line><line x1="364.142578125" y1="0" x2="364.142578125" y2="5" style="visibility: inherit;" fill="rgb(0, 0, 0)" stroke="rgb(204, 204, 204)" stroke-width="1px"></line><line x1="485.5234375" y1="0" x2="485.5234375" y2="5" style="visibility: inherit;" fill="rgb(0, 0, 0)" stroke="rgb(204, 204, 204)" stroke-width="1px"></line><line x1="606.904296875" y1="0" x2="606.904296875" y2="5" style="visibility: inherit;" fill="rgb(0, 0, 0)" stroke="rgb(204, 204, 204)" stroke-width="1px"></line><line x1="728.28515625" y1="0" x2="728.28515625" y2="5" style="visibility: inherit;" fill="rgb(0, 0, 0)" stroke="rgb(204, 204, 204)" stroke-width="1px"></line><line x1="849.666015625" y1="0" x2="849.666015625" y2="5" style="visibility: inherit;" fill="rgb(0, 0, 0)" stroke="rgb(204, 204, 204)" stroke-width="1px"></line><line x1="971.046875" y1="0" x2="971.046875" y2="5" style="visibility: inherit;" fill="rgb(0, 0, 0)" stroke="rgb(204, 204, 204)" stroke-width="1px"></line></g><g transform="translate(0, 8)"><text x="0" y="0" dx="0em" dy="0.95em" style="text-anchor: middle; visibility: hidden; font-family: Roboto, sans-serif; font-size: 12px; font-weight: 200;" fill="rgb(255, 255, 255)" stroke="none" stroke-width="1px">-0.5</text><text x="121.380859375" y="0" dx="0em" dy="0.95em" style="text-anchor: middle; visibility: inherit; font-family: Roboto, sans-serif; font-size: 12px; font-weight: 200;" fill="rgb(255, 255, 255)" stroke="none" stroke-width="1px">0</text><text x="242.76171875" y="0" dx="0em" dy="0.95em" style="text-anchor: middle; visibility: inherit; font-family: Roboto, sans-serif; font-size: 12px; font-weight: 200;" fill="rgb(255, 255, 255)" stroke="none" stroke-width="1px">0.5</text><text x="364.142578125" y="0" dx="0em" dy="0.95em" style="text-anchor: middle; visibility: inherit; font-family: Roboto, sans-serif; font-size: 12px; font-weight: 200;" fill="rgb(255, 255, 255)" stroke="none" stroke-width="1px">1</text><text x="485.5234375" y="0" dx="0em" dy="0.95em" style="text-anchor: middle; visibility: inherit; font-family: Roboto, sans-serif; font-size: 12px; font-weight: 200;" fill="rgb(255, 255, 255)" stroke="none" stroke-width="1px">1.5</text><text x="606.904296875" y="0" dx="0em" dy="0.95em" style="text-anchor: middle; visibility: inherit; font-family: Roboto, sans-serif; font-size: 12px; font-weight: 200;" fill="rgb(255, 255, 255)" stroke="none" stroke-width="1px">2</text><text x="728.28515625" y="0" dx="0em" dy="0.95em" style="text-anchor: middle; visibility: inherit; font-family: Roboto, sans-serif; font-size: 12px; font-weight: 200;" fill="rgb(255, 255, 255)" stroke="none" stroke-width="1px">2.5</text><text x="849.666015625" y="0" dx="0em" dy="0.95em" style="text-anchor: middle; visibility: inherit; font-family: Roboto, sans-serif; font-size: 12px; font-weight: 200;" fill="rgb(255, 255, 255)" stroke="none" stroke-width="1px">3</text><text x="971.046875" y="0" dx="0em" dy="0.95em" style="text-anchor: middle; visibility: hidden; font-family: Roboto, sans-serif; font-size: 12px; font-weight: 200;" fill="rgb(255, 255, 255)" stroke="none" stroke-width="1px">3.5</text></g><line x1="0" y1="0" x2="971.046875" y2="0" fill="rgb(0, 0, 0)" stroke="rgb(204, 204, 204)" stroke-width="1px"></line></g></g></g></g></svg>