<svg viewBox="0 0 1033 400" xmlns="http://www.w3.org/2000/svg"><g><g><g><g><g><line x1="51.5625" y1="377" x2="46.5625" y2="377" style="visibility: inherit;" fill="rgb(0, 0, 0)" stroke="rgb(204, 204, 204)" stroke-width="1px"></line><line x1="51.5625" y1="339.3" x2="46.5625" y2="339.3" style="visibility: inherit;" fill="rgb(0, 0, 0)" stroke="rgb(204, 204, 204)" stroke-width="1px"></line><line x1="51.5625" y1="301.6" x2="46.5625" y2="301.6" style="visibility: inherit;" fill="rgb(0, 0, 0)" stroke="rgb(204, 204, 204)" stroke-width="1px"></line><line x1="51.5625" y1="263.9" x2="46.5625" y2="263.9" style="visibility: inherit;" fill="rgb(0, 0, 0)" stroke="rgb(204, 204, 204)" stroke-width="1px"></line><line x1="51.5625" y1="226.2" x2="46.5625" y2="226.2" style="visibility: inherit;" fill="rgb(0, 0, 0)" stroke="rgb(204, 204, 204)" stroke-width="1px"></line><line x1="51.5625" y1="188.5" x2="46.5625" y2="188.5" style="visibility: inherit;" fill="rgb(0, 0, 0)" stroke="rgb(204, 204, 204)" stroke-width="1px"></line><line x1="51.5625" y1="150.8" x2="46.5625" y2="150.8" style="visibility: inherit;" fill="rgb(0, 0, 0)" stroke="rgb(204, 204, 204)" stroke-width="1px"></line><line x1="51.5625" y1="113.10000000000002" x2="46.5625" y2="113.10000000000002" style="visibility: inherit;" fill="rgb(0, 0, 0)" stroke="rgb(204, 204, 204)" stroke-width="1px"></line><line x1="51.5625" y1="75.39999999999998" x2="46.5625" y2="75.39999999999998" style="visibility: inherit;" fill="rgb(0, 0, 0)" stroke="rgb(204, 204, 204)" stroke-width="1px"></line><line x1="51.5625" y1="37.69999999999999" x2="46.5625" y2="37.69999999999999" style="visibility: inherit;" fill="rgb(0, 0, 0)" stroke="rgb(204, 204, 204)" stroke-width="1px"></line><line x1="51.5625" y1="0" x2="46.5625" y2="0" style="visibility: inherit;" fill="rgb(0, 0, 0)" stroke="rgb(204, 204, 204)" stroke-width="1px"></line></g><g transform="translate(41.5625, 0)"><text x="0" y="377" dx="0em" dy="0.3em" style="text-anchor: end; visibility: hidden; font-family: Roboto, sans-serif; font-size: 12px; font-weight: 200;" fill="rgb(255, 255, 255)" stroke="none" stroke-width="1px">-0.5</text><text x="0" y="339.3" dx="0em" dy="0.3em" style="text-anchor: end; visibility: inherit; font-family: Roboto, sans-serif; font-size: 12px; font-weight: 200;" fill="rgb(255, 255, 255)" stroke="none" stroke-width="1px">0</text><text x="0" y="301.6" dx="0em" dy="0.3em" style="text-anchor: end; visibility: inherit; font-family: Roboto, sans-serif; font-size: 12px; font-weight: 200;" fill="rgb(255, 255, 255)" stroke="none" stroke-width="1px">0.5</text><text x="0" y="263.9" dx="0em" dy="0.3em" style="text-anchor: end; visibility: inherit; font-family: Roboto, sans-serif; font-size: 12px; font-weight: 200;" fill="rgb(255, 255, 255)" stroke="none" stroke-width="1px">1</text><text x="0" y="226.2" dx="0em" dy="0.3em" style="text-anchor: end; visibility: inherit; font-family: Roboto, sans-serif; font-size: 12px; font-weight: 200;" fill="rgb(255, 255, 255)" stroke="none" stroke-width="1px">1.5</text><text x="0" y="188.5" dx="0em" dy="0.3em" style="text-anchor: end; visibility: inherit; font-family: Roboto, sans-serif; font-size: 12px; font-weight: 200;" fill="rgb(255, 255, 255)" stroke="none" stroke-width="1px">2</text><text x="0" y="150.8" dx="0em" dy="0.3em" style="text-anchor: end; visibility: inherit; font-family: Roboto, sans-serif; font-size: 12px; font-weight: 200;" fill="rgb(255, 255, 255)" stroke="none" stroke-width="1px">2.5</text><text x="0" y="113.10000000000002" dx="0em" dy="0.3em" style="text-anchor: end; visibility: inherit; font-family: Roboto, sans-serif; font-size: 12px; font-weight: 200;" fill="rgb(255, 255, 255)" stroke="none" stroke-width="1px">3</text><text x="0" y="75.39999999999998" dx="0em" dy="0.3em" style="text-anchor: end; visibility: inherit; font-family: Roboto, sans-serif; font-size: 12px; font-weight: 200;" fill="rgb(255, 255, 255)" stroke="none" stroke-width="1px">3.5</text><text x="0" y="37.69999999999999" dx="0em" dy="0.3em" style="text-anchor: end; visibility: inherit; font-family: Roboto, sans-serif; font-size: 12px; font-weight: 200;" fill="rgb(255, 255, 255)" stroke="none" stroke-width="1px">4</text><text x="0" y="0" dx="0em" dy="0.3em" style="text-anchor: end; visibility: hidden; font-family: Roboto, sans-serif; font-size: 12px; font-weight: 200;" fill="rgb(255, 255, 255)" stroke="none" stroke-width="1px">4.5</text></g><line x1="51.5625" y1="0" x2="51.5625" y2="377" fill="rgb(0, 0, 0)" stroke="rgb(204, 204, 204)" stroke-width="1px"></line></g></g><g transform="translate(51, 0)" clip-path="url(#clip_0)"><clipPath id="clip_0"><rect width="981" height="377"></rect></clipPath><g><g><g><line x1="0" y1="0" x2="0" y2="377" fill="rgb(0, 0, 0)" stroke="rgb(189, 189, 189)" stroke-width="1px" opacity="0.25"></line><line x1="122.6796875" y1="0" x2="122.6796875" y2="377" fill="rgb(0, 0, 0)" stroke="rgb(189, 189, 189)" stroke-width="1px" opacity="0.25"></line><line x1="245.359375" y1="0" x2="245.359375" y2="377" fill="rgb(0, 0, 0)" stroke="rgb(189, 189, 189)" stroke-width="1px" opacity="0.25"></line><line x1="368.0390625" y1="0" x2="368.0390625" y2="377" fill="rgb(0, 0, 0)" stroke="rgb(189, 189, 189)" stroke-width="1px" opacity="0.25"></line><line x1="490.71875" y1="0" x2="490.71875" y2="377" fill="rgb(0, 0, 0)" stroke="rgb(189, 189, 189)" stroke-width="1px" opacity="0.25"></line><line x1="613.3984375" y1="0" x2="613.3984375" y2="377" fill="rgb(0, 0, 0)" stroke="rgb(189, 189, 189)" stroke-width="1px" opacity="0.25"></line><line x1="736.078125" y1="0" x2="736.078125" y2="377" fill="rgb(0, 0, 0)" stroke="rgb(189, 189, 189)" stroke-width="1px" opacity="0.25"></line><line x1="858.7578125" y1="0" x2="858.7578125" y2="377" fill="rgb(0, 0, 0)" stroke="rgb(189, 189, 189)" stroke-width="1px" opacity="0.25"></line><line x1="981.4375" y1="0" x2="981.4375" y2="377" fill="rgb(0, 0, 0)" stroke="rgb(189, 189, 189)" stroke-width="1px" opacity="0.25"></line></g><g><line x1="0" y1="377" x2="981.4375" y2="377" fill="rgb(0, 0, 0)" stroke="rgb(189, 189, 189)" stroke-width="1px" opacity="0.25"></line><line x1="0" y1="339.3" x2="981.4375" y2="339.3" fill="rgb(0, 0, 0)" stroke="rgb(189, 189, 189)" stroke-width="1px" opacity="0.25"></line><line x1="0" y1="301.6" x2="981.4375" y2="301.6" fill="rgb(0, 0, 0)" stroke="rgb(189, 189, 189)" stroke-width="1px" opacity="0.25"></line><line x1="0" y1="263.9" x2="981.4375" y2="263.9" fill="rgb(0, 0, 0)" stroke="rgb(189, 189, 189)" stroke-width="1px" opacity="0.25"></line><line x1="0" y1="226.2" x2="981.4375" y2="226.2" fill="rgb(0, 0, 0)" stroke="rgb(189, 189, 189)" stroke-width="1px" opacity="0.25"></line><line x1="0" y1="188.5" x2="981.4375" y2="188.5" fill="rgb(0, 0, 0)" stroke="rgb(189, 189, 189)" stroke-width="1px" opacity="0.25"></line><line x1="0" y1="150.8" x2="981.4375" y2="150.8" fill="rgb(0, 0, 0)" stroke="rgb(189, 189, 189)" stroke-width="1px" opacity="0.25"></line><line x1="0" y1="113.10000000000002" x2="981.4375" y2="113.10000000000002" fill="rgb(0, 0, 0)" stroke="rgb(189, 189, 189)" stroke-width="1px" opacity="0.25"></line><line x1="0" y1="75.39999999999998" x2="981.4375" y2="75.39999999999998" fill="rgb(0, 0, 0)" stroke="rgb(189, 189, 189)" stroke-width="1px" opacity="0.25"></line><line x1="0" y1="37.69999999999999" x2="981.4375" y2="37.69999999999999" fill="rgb(0, 0, 0)" stroke="rgb(189, 189, 189)" stroke-width="1px" opacity="0.25"></line><line x1="0" y1="0" x2="981.4375" y2="0" fill="rgb(0, 0, 0)" stroke="rgb(189, 189, 189)" stroke-width="1px" opacity="0.25"></line></g></g></g><g><g><line x1="0" y1="339.3" x2="981.4375" y2="339.3" fill="rgb(0, 0, 0)" stroke="rgb(153, 153, 153)" stroke-width="1.5px"></line></g></g><g><g><line x1="122.6796875" y1="0" x2="122.6796875" y2="377" fill="rgb(0, 0, 0)" stroke="rgb(153, 153, 153)" stroke-width="1.5px"></line></g></g><g><g><g><g><g><path stroke="rgb(255, 112, 67)" stroke-width="2px" d="M122.6796875,49.02978162765504L123.18969422309027,32.75826065350635L123.29369933593749,54.04228707179015L123.37671259114582,69.88056766298527L123.47765071180555,74.60521283249992L124.98129474826388,97.28368251863677L125.48332729166667,117.73500562561237L125.89273667100694,132.92023439587064L126.62404391927082,158.56337138516292L126.76205856770832,153.68833734241093L126.92413206597222,156.35152655409163L128.36248324652777,171.97929995643432L128.460354375,178.08872317700968L130.63566970052085,190.15537890617608L131.89817999565972,213.96623626753814L133.35922691840278,188.78012626705146L133.49840020833332,207.54850739257955L133.84790100694445,211.36886848657696L134.85162531684028,219.89746913359818L134.8714585329861,231.63520278346792L135.30744851128472,240.73872966122235L136.31301301649304,246.6203845892589L136.8760446267361,245.20406016768976L136.93683922743054,245.67209778954512L137.70324649739584,259.138008090452L137.77337838541666,254.43860414694257L138.23015575520833,257.525793310079L139.6826150998264,255.45910485738779L140.03184327690974,257.9673563594083L141.77164571180555,263.4769220912882L142.79070498263889,270.22055497789734L142.89286990017362,275.87622443418286L143.85720039930555,266.4797204753754L143.91458723090278,264.81710773070387L144.75180794270835,261.6473714472061L146.45214841145832,262.6350033897661L146.71257012586804,273.1653084008165L148.9978200824653,276.0406395175968L149.7893085329861,280.93198124382144L149.98593680989583,279.1187209646325L150.14194447916665,284.5063993853918L151.30276694444444,278.98864194883987L152.39604742621526,282.1936599216268L153.80372868489584,285.83005597626595L154.2055728168403,288.49161331214844L154.7478170355903,293.26891108389066L155.12444367621526,296.0637148580118L158.81417158854168,298.77728016702946L158.9947151953125,292.8184277050416L159.14833742621528,296.74458349754127L159.86103825520834,300.13002911950787L160.1686234939236,302.16458149016705L160.66561253906252,301.8058070139784L160.7392203515625,301.9718429997981L161.08510891493057,300.67706000760865L161.20819753472222,295.2881101090532L161.74723845052085,295.90943223234075L161.85172065104166,302.83926565317927L162.14472063802083,304.3532206952594L163.99861518229167,305.3653718832759L164.04584686197916,295.1861570248895L165.79539551649307,295.75530462773196L165.92039248697918,293.7814319763686L166.03107682725695,296.42039587354947L166.60760320312502,298.3812762035143L166.65906051649304,300.17775882708804L167.4137450607639,305.46719975892745L167.6462230685764,304.43802097291984L167.7145147612847,304.25235238198525L168.55855101128472,306.0408405882068L168.9099601605903,305.44089316563156L169.4551350607639,303.4121402530257L172.3847259982639,307.1636875453826L173.91113393229168,300.14489451396577L176.3801307986111,302.3272664271703L176.42511335069443,304.5565493554359L176.7009381814236,308.32548313857393L177.04048829427086,310.0024739617595L178.0063863671875,309.36954428118327L178.46071014322916,308.52630001392976L179.2419071310764,303.1337882436511L179.4841995138889,300.24527922330526L179.6425926215278,299.38292007643895L179.6654928298611,305.49930751818533L180.98082354600695,308.09334813831055L181.04318572048612,310.1781874181442L182.04384303819444,311.43677207518243L182.89040103732637,311.0147440595089L183.41778738281252,316.6663830823169L183.8247431684028,317.78807782470176L183.8383060894097,317.2972088191959L184.06315069444446,318.2853435793031L184.31109997395833,312.44570767945595L184.64097202256943,310.1086392490883L185.41099152777778,314.62027669177365L185.43136998697918,317.9057633704824L185.4933232291667,319.0724492992743L185.58240231336805,318.3729908279207L185.64524157552083,318.43247647191004L185.7082171484375,315.5849784152956L185.91649999565973,317.32273064726763L186.46978538628474,314.6587938809815L186.93235596354168,316.028144350696L187.05857973090278,320.303155872286L188.714482890625,317.4076111714209L189.50590318576388,315.16115118779186L189.64718929253473,316.85772250001884L190.80992010850696,316.10400662869546L190.85946907118054,318.51952705138837L191.1817077170139,319.81681759482603L191.9331208029514,318.4282582132883L192.4254071267361,317.53257065158505L192.8924759592014,316.4827904869841L193.08528753472223,315.6710145793166L194.68564405815974,314.0714854173804L194.88717952256943,316.93716542764577L195.82724670572918,307.4991981447135L196.5079145052083,309.8714355260501L198.3845047916667,315.29948976551833L198.51052409288195,315.7571469603333L199.50797810763888,317.91205166586394L201.14111736979166,319.37448059882894L201.7145085980903,321.9340413462714L204.24061967447918,320.42701588048055L204.35914188368054,321.45141715652153L204.51910256510416,319.81930886404734L204.83561615885418,323.2388165086936L204.96851915364584,321.36413569507334L205.1834812282986,320.37136256225455L205.2679257465278,322.0474564199077L205.35666405381943,321.53580906723005L206.3789266276042,320.26386394476293L206.62857979166665,319.62342588721515L207.48270303819444,323.64925113259574L207.70856997395833,321.13166718612524L207.97328547743055,322.2395357532728L209.27907444010415,321.82101954006487L209.41340869791668,323.84571854739823L211.07912623263888,320.7342976136607L211.81772610677083,319.6374063725157L212.2024632378472,321.10300940784776L212.72269326822916,321.9796500762107L214.73941101996527,322.0898608564987L214.86897440104167,321.5608561561963L216.2230855295139,323.53346994994246L217.65727923177081,323.1739477113918L218.18534713107638,323.81305762789515L218.34080955729166,326.3453481590581L219.46844035156252,325.19796130618823L221.12965963107638,327.6524265427243L221.50533209635418,326.33407958180425L221.5628552387153,327.6217535440532L221.8174837456597,327.15461228733403L221.84297385850692,325.83387886000895L222.44710316406253,321.23673890795095L223.2823473697917,318.74535184255745L225.03128262586807,322.1242046026613L226.81381848524305,322.41326083873656L227.94294869791665,321.96842585608914L228.25482772569447,320.5797344407948L228.40061208767364,322.151974314471L228.69865557291666,323.9433540355271L228.75311172309026,321.1380723358712L232.29991779947918,323.6801251988594L232.34646792534724,323.3855879108672L232.3757747395833,323.5059545208015L233.38501963541668,324.07562705505933L235.1093507986111,325.6920510242702L235.11971041666666,327.5801492161367L235.6085208159722,327.11296208066346L237.1416761328125,325.3956756399143L238.7593441232639,325.89654739749903L239.4434878472222,325.91652847269046L241.65935562500002,325.78329083851025L241.98432048611113,324.2929780049034L243.2608026345486,326.0107547270977L243.86888495225696,327.0220855632024L244.55991236979165,326.86304898928904L245.2497811458333,326.7199107734164L245.32257109375,326.5752553463087L247.41337374565975,326.6887977152056L247.73097782552088,327.19724256754097L247.80778894097224,327.3087970028316L248.69387706163198,325.88563431253203L250.43831406250004,325.21806111820945L251.97521792534724,328.03291421856335L252.4311092751736,326.7734399639804L252.87466450086808,326.7726587485168L253.41288755208336,328.4243596431262L254.3542496875,326.0406667839084L254.55857952256946,326.24670743909445L254.6933227126736,326.69557379209454L255.46402377170136,327.59031147087086L256.22211608506944,326.06649831836137L257.2147310677084,327.0073595144092L257.31219326388884,327.58175882248145L257.34926979166664,329.42627270791206L257.40522536024304,331.7075313105971L257.4479587847222,331.36014676093333L257.89274080729166,329.2332955517425L258.79511806423614,327.8214435022718L259.29183448784727,328.04054654277L261.48084904513894,328.6314469351751L264.0363350911459,328.9549168685673L265.437064500868,329.5666140883769L265.8915927430555,329.0716038373639L266.2117867274306,329.9886404544139L266.40814238281246,330.50802356029897L266.59945453993055,326.762733913629L266.6107001779514,328.31748985549507L269.1289052300348,329.3213651442204L270.0789230989583,329.6527364698539L270.49371675347226,331.61870113264905L270.5172303602431,331.610060306836L270.58197797309026,330.25409287506193L270.63636596788194,330.5066596999407L272.54798812065974,330.6828885291618L272.6652835329861,327.5613236649908L273.14305276041665,327.218419666557L273.1691562717014,325.17219581711987L273.4551362543403,326.81153951685945L273.51743027343747,328.4968937605712L274.3224134895833,328.7219375145316L274.3540375868056,329.2367894998254L277.66897905381944,329.10324121842115L278.5042914149306,328.0539054551581L280.77761417968753,325.48383743481406L281.1060549652778,326.49705264002984L281.91764925347223,322.8424310886899L283.6580650868055,325.2868808403612L285.12224715711807,326.78684328440136L285.27321132812506,330.10090556980725L285.5140042925347,327.83577579451946L286.3202143055555,329.66767976884427L286.7777413845486,331.0920615255423L287.7426171267361,322.59376728598863L288.6399508854167,324.845030837728L288.88122093749996,328.2708624235175L289.94458120659726,329.3741897260871L289.9715025824653,329.9146837517113L291.1640173003472,330.33600639044414L291.62093098090276,330.20334457855955L293.8422511892361,329.07622324479394L294.5443879340278,330.7533812725043L294.5820778602431,331.78583978249594L295.37935951822914,330.3704860761318L296.67758323350694,331.02516307716536L297.4112077647569,331.6815606578556L297.99318657118056,331.7284756996114L298.7184279904514,328.4457842392698L299.9531990451389,328.3911819663769L300.37685289930556,328.1435118698516L300.83615201822914,329.84054225391844L301.54026526909723,324.6111660902266L301.7100403255208,327.8538410019918L303.2624836154514,328.87116481480456L303.6510374479166,329.2357331416852L305.95577984375,329.38312688888817L306.43532111111114,329.35440523752334L306.825578828125,325.3555213647965L307.26402240017364,326.7390807602761L308.40923728298617,328.6673505756487L309.3514172829861,320.1872415842123L309.9638615451389,325.3628499848004L311.15317296006947,328.031738402066L311.7677300390625,329.8183161714309L311.86614641059026,329.4579328985943L311.9997991145833,328.63028577181956L312.1306574479167,328.95584448066563L312.57182723524306,331.409809258219L313.7323089236111,329.12882207872616L313.76584137152776,330.11600457462293L315.5213876996528,330.5391498651711L315.5736628776042,330.84537059694327L315.6660815755208,332.20539726112474L315.7253086024306,331.7190775948079L315.74159773871526,331.28773514618536L316.7548638020833,331.5322927182018L317.491350859375,332.47842177455357L318.04129663628476,330.34869193834066L318.3073070920139,331.70552379411623L319.2586199131945,331.2649856373534L319.30585159288194,330.69122204920694L319.5948985677083,330.81181117725396L320.33070407118055,332.47805138320774L320.90573102864585,332.18189266711306L320.9308803645833,332.639125548255L321.9095916493056,334.13532912368254L322.40787564670137,332.5888295380442L324.7233184375,331.93602366318794L326.169711953125,333.1012310203859L327.54685960069446,331.49250508080576L328.60865229600694,330.5344912239734L329.29265970920136,331.5738318677231L329.61735194878474,331.77924701990656L329.9959550954861,331.2077460935019L331.1026621875,332.1939096563252L331.3219862065972,330.3048217843417L332.11579194010415,329.45067809712504L332.48335391493055,330.30819825613776L334.3142119401042,329.7244305926863L335.03270597656245,330.9679760174567L335.9023004947917,330.1816835904095L336.3040764713541,330.9187006553222L336.9980345703125,330.2155191458079L338.3402866623264,332.28979741707286L339.20068020399304,331.2875292784934L339.22058157552084,331.85875535050985L339.8247108810764,332.54750110358134L341.3370106510417,331.13230674156335L341.40359845920136,332.3193165238379L341.5255284375,331.2704482412656L342.1335425998264,332.03706505574456L343.1371305989584,332.4387265294427L343.45759720486114,332.3681896229305L343.81548111545135,333.29899616914753L344.2388623480903,331.43203638221127L345.7820365060764,333.13729104078254L346.29217953993054,333.2920954669959L349.82549085069445,332.7154542767816L349.8271265798611,331.31927929904833L350.0576280815972,330.86618655052894L350.1071088888889,332.80719532911274L350.1758776692708,332.77281902501664L351.0708941449653,330.7082238256492L351.7055570616319,328.7913144879599L352.56908575086806,330.422357297633L352.58966867621524,331.2672676923116L353.32697359809026,326.06826747840444L354.50749296875,329.49701282468783L355.3841074913194,327.7720934638041L357.551176015625,329.5741216780542L361.68759430121526,327.4620172396362L361.8469415842014,330.11653065739654L362.8082050911458,329.9961199625069L364.74047832465277,329.9653892544843L365.02468626736106,331.56549974763516L365.1752415060764,332.5587830056422L365.33806471354166,331.57331667907766L366.2079318532986,332.86690970909336L366.45295045138886,332.4573372939706L369.5152399175347,331.6695058375816L369.6055457986111,332.36266653629735L369.8459298307292,333.0087820603242L371.3679758203125,331.7424176838918L371.7676389800347,331.5507622853934L372.4386968706597,331.39250895901483L373.54022415364585,332.228016915206L373.7896728515625,331.29088206823667L374.5780261545139,332.45219828140364L374.5999040321181,332.18262041154134L374.74541577256946,333.6765735578992L375.4446899913194,332.9019024941691L376.87438543836805,332.43122635172364L377.31385134114583,332.85467005392786L378.07528326822916,333.25964779665804L378.8664309418403,332.7914058994562L378.87495036458336,333.14170434233256L379.7026974782986,331.0520696660335L380.5738595703125,332.4972383719289L383.52614625,333.27175682421694L384.0777277560764,333.5459191792342L384.3243139279514,333.79405370803437L384.40201106336804,332.5012333511494L385.46196356336804,333.255886383774L385.5322999175347,333.1235333545423L385.58246227864583,333.0781796333418L385.59902403645833,333.8647304228466L385.73458509114585,332.2053360146547L386.95368040798616,332.0675854283368L387.3577055121528,331.65203368026937L387.7546424565972,333.28050010672865L388.9914581727431,334.20451939700774L389.05177568576386,333.5375386818776L389.5758224175347,332.7276785575034L389.57752630208336,332.17652796895607L390.7125860329861,333.0945500031366L390.9521522005208,333.9626686357643L391.4502317317708,332.7269668482393L391.87456713975695,331.98416707844336L392.65276529079864,332.8444265994402L392.87168037760415,333.3301688966686L393.56223070746523,334.3358432664615L393.6611923220486,333.85067609409055L393.86804390624997,332.79401576357543L397.48027914930555,333.9246773577988L398.1386601388889,334.60150237922346L399.6808119661458,334.58142416796585L401.05318873697917,334.5186834332956L401.4479447092014,332.66139262726176L401.65159299045143,334.06035680681623L401.7482373220486,334.4219786594112L401.87050807725694,334.2293762048247L401.8773236154514,334.94144796981993L403.33646218750005,334.66241813201907L403.90262894531253,335.37689212641266L404.2482448871528,335.7204346829578L405.90626086371526,336.2650192243304L406.08407825520834,334.1175504292042L406.3833485373264,332.6642272647802L406.40624874565975,332.8246541690225L406.4675204340278,332.5836118186259L406.5357439713541,333.1278246693877L406.69659067274307,332.65802902063876L406.7797402387153,332.8645523454264L407.40199887586806,332.7980142702675L409.2175900954861,332.588371332562L409.6376317144097,334.02477878845554L411.13650487413196,333.34200377843445L411.3529663671875,334.00958877081L413.17121564670134,333.2106649959875L414.2253067838542,332.7059640856622L414.8920708854167,333.2348081974807L415.12155005642364,333.9010004501861L415.14663123697915,331.5427927103617L416.87103055555554,331.50290190900904L417.7217460329861,332.39785172466327L417.75459692708336,332.5571682770098L417.86671253038196,332.93067624904955L418.1495573654514,333.83874459168266L418.40957014756947,334.0835115543624L418.7483705512153,333.6668000366357L419.4349678689236,333.5474231031772L422.2082103602431,334.2195839276585L423.0226671744792,334.14092495240834L423.7682870529514,333.576996174527L423.8584566232639,334.08350674977413L424.1612028298611,332.631578507186L424.2240420920139,332.0502151658228L424.83471431423607,331.38856881491716L425.6116856684028,330.42139516046376L425.6578950173611,331.528565577873L425.9570971440972,331.3726066087317L427.1294378689236,332.5011592236128L427.4531077777778,333.0625694095936L427.5611340581597,330.62570441909656L428.36550387586806,331.5299031886881L428.7196392404514,332.2573505214315L429.7534882291667,331.583129179831L432.16700661458333,332.74251717753754L433.76184255208335,333.88226657419517L433.98914075086805,334.4123554870693L434.33857339409724,334.09255351169526L435.3500674175347,334.5699017676463L435.38925676215274,332.4217593654935L436.59901479166666,330.34021885560696L437.07944207899305,331.5950769216579L437.3558803081597,331.7404330480727L437.7804883376736,331.4038128408306L438.6110298220486,331.60962765287195L438.8555713324653,332.5067698934665L439.2038453342014,333.7435918305755L439.93188112413196,334.74603192046084L440.970978077257,331.97715059654377L441.3676424001736,331.93672869947073L442.0845007074653,333.3554977419172L442.24118993055555,332.7256083192568L442.6315158029514,332.1448409960486L443.1552899131944,332.0807623928883L444.52037405815975,332.0918131417569L445.3712940017361,333.0437652851824L445.43720025607644,333.53022577452896L445.453625703125,335.2855031444859L446.8894551345486,335.99901002375265L447.8423355295139,335.64815445659644L448.0468698307292,334.46605543957816L448.1890419574653,332.54149666885803L448.5592619921875,334.1082451362467L449.0069746961806,333.9229217624745L449.3328937326389,333.5056135728613L450.6333665755208,334.2660972515962L451.0251237109375,334.21906297633353L452.07389872829856,334.41730826284964L452.24864912760415,335.0028882513605L453.7959126085069,334.575979059177L454.13682582899304,334.19905773944805L454.650990030382,335.3412264674375L455.6656192013889,336.02195939445136L456.67200157118054,335.40742521497293L456.9971708984375,335.27864463165093L457.7010115277778,335.3089563731213L458.4928407552083,334.5176123727666L458.7239556553819,332.35083994597204L459.5694231684028,332.24829128940524L461.04662291666665,334.3138844035221L461.6465947439236,335.8087114529447L463.0595921223958,335.44831673169307L463.0662031944444,334.86115643994L463.1609391753472,334.60702629245156L463.94077305555555,334.72782009840296L464.24672256510416,333.89615463597954L465.0216492578125,334.3931569560941L466.46109092447915,333.50316876092563L466.5517375824653,333.2960890374566L466.6435428819444,332.8963953614552L466.65178968315973,333.8372826510615L467.28059123697915,333.99223280415856L467.3610827430556,333.95613910176354L467.36449051215277,333.5049513705662L467.73539210069447,333.77898747991617L467.92445513020834,333.99009913552476L469.027754453125,333.7071870253261L470.0451098394097,331.6675441428584L470.7479281380208,331.8089743344836L471.69712814236107,333.1317339491151L472.53911973090277,332.3260296498682L472.9312857986111,332.6376628870652L473.71071074652775,334.05516843986635L473.7588966015625,334.0196886428238L474.83363881944445,335.1138185012823L474.91787887152776,334.91852863648137L475.7122980034722,333.7015137613474L475.83899885850695,334.4598603960795L476.4772740104167,334.51040791579624L476.555448233507,334.7862962488191L478.90680891059026,333.33060953211935L478.919349500868,333.88286187169126L479.0249221875,334.50914429433533L480.2421091536458,335.5912176932793L480.950925125868,335.9698712510582L481.13276368489585,335.4915469695113L484.53133180555557,335.2900970799853L489.18273215711804,335.59019642216407L490.5147609418403,334.99359010904936L490.6959179470486,336.0018938864047L491.08692537326385,336.3600972810822L492.76797786892365,333.28015864440033L493.1548959722223,334.20546295701143L493.24826884548605,335.4350539372258L493.99927299913196,334.416782505488L495.97836898003465,335.5767167169681L497.27154919704856,335.8423296948163L497.2783647352431,334.18061273767745L497.9662570052084,334.7950813364634L498.0134205295139,334.59230469928735L498.80006994791665,334.6737951864972L498.80565868923617,335.72373107627885L499.72657421006943,335.8404525145626L499.8167437803819,334.82446534656714L502.0429030208333,335.41084802518066L502.6862898263888,334.6323116520806L502.9103847222222,335.15411066546693L503.7788205989583,335.46597540795375L503.9841727647569,334.8457690325221L504.8189398828125,335.26573538960884L505.41223248263896,334.55011142619657L507.07658690972215,335.3394205842046L508.1175240581597,335.58126239199095L509.40811437065963,335.38021718917315L510.70988216579866,335.91114860811865L512.4430735286458,336.23417154639515L513.3795284765625,335.7238495169304L514.7596749609376,335.3537738288535L514.9064816536458,335.4247460898647L514.9278142881946,335.88230230255203L515.6064374262153,331.7809208672924L515.918452764757,331.61316659452297L516.7190740364583,333.20318684816283L517.8600632855903,333.92977565348014L518.1936838802083,334.637786069555L520.0924928211806,332.9325939018937L521.004548142361,333.7130577670462L523.5131432855903,334.1346232707895L523.8003500651042,335.0673276750831L524.9371818359375,335.4101070596998L525.4625916753472,334.6489084718097L525.5184790885417,335.13517048412865L526.3336174565972,333.2127122970544L526.4372817925347,333.98314232550075L526.5302457335068,334.08908155670616L527.710356171875,335.6441862120059L528.9123444878472,336.00353625524406L529.0256187326389,336.6828596824959L529.0723733246527,336.6605466808168L531.5658379730903,336.52133309456235L532.1626064973958,335.77533421633285L532.4451105555555,335.8822052241925L533.0646429774305,335.58218600116834L533.1049909635417,334.2422383038285L535.6559105989584,334.66117662440234L536.1337479817709,334.1369570492368L536.2634476736112,334.8611568000725L536.9587688802083,335.05402719784115L537.8966550911458,335.6066081276743L538.0949872526041,336.19711639228746L538.8487176215277,335.97632573469025L540.1859262152778,336.83077529269474L540.3484768012153,332.67606500350377L543.1874892361112,333.2422598029097L545.5577971093751,332.2100865452935L546.3214781640625,333.06847115428263L548.2519793576389,333.63548597278816L548.4165064496528,333.42709123680277L548.4375664626737,333.65448817867343L548.838115642361,335.00359073361346L550.3874237847222,335.96091563755294L551.4893599999999,336.223840631703L551.4926314583333,335.959948183555L551.8307503081597,336.12245305554944L552.6786714149305,335.9994544341891L552.6836467578124,336.53790779060654L553.3788998090279,336.5979825771138L553.859395251736,335.50958271433063L554.1182493923611,335.19626126984406L554.496170985243,335.59443422166436L555.1102509765625,333.8374771851075L555.6280955685763,334.6393472327161L555.8395135633681,334.29779066231106L557.0897558897569,333.93477993183814L558.9808632725695,334.9227394087989L559.1721072743056,336.1049665976787L559.3683947743056,336.08373882037927L559.7762365798611,335.8085360911652L561.6758633854167,336.0671340743097L561.6794074652778,336.1413040869191L561.7027847612848,335.8954846506234L561.9704991015625,335.6296877659333L562.2737905512153,336.39316528413923L562.491342530382,336.1892395320074L563.5302350173612,336.1442553127545L564.8067853211805,336.8226173910418L565.0706148046875,334.9913525011202L565.3396922526042,335.90256414080187L565.5037422569445,335.43283314566173L567.2271874001736,333.65277533782984L568.3756737413195,334.31036094105883L568.6782154817708,334.68151106307846L662.513318546007,335.6967206181893L663.7288697829861,336.4854128010556L664.1630195659723,335.73277867766967L664.7009699956598,335.19847683681314L665.0335682595486,334.0986927082325L666.0744372526042,334.38697400160754L678.5278567968751,333.6213428019046L681.2456889626735,334.2861084433423L681.4086484809027,334.90157365657933L682.154200203993,334.4072105978459L682.7707337890625,334.7338692022778L684.9917132204861,335.73986839749233L687.4022327690972,335.21277269864L688.9345702213542,334.7613908175413L689.6607658159722,334.23071925092034L691.3378652994792,333.97612341701404L692.3087387152779,334.4835557768481L692.5222695269097,335.16429959804947L692.7794879383681,334.25328118272716L693.8131324609375,334.15305757015324L694.0534483376736,333.26406311446095L695.1047451041666,334.5894710642797L695.2389430512153,334.8542958929209L696.4662851692708,334.4074999085763L697.0605319444445,335.39241966520274L697.0952230338542,336.1947158911969L697.4310246006945,335.9611268984654L698.6591845833334,335.98676487920363L699.2057907465278,336.03942462717055L699.416459032118,335.88283427545855L700.2148993315973,336.0246964183176L700.3822207942708,336.75739610805226L700.4046439149305,336.8886436756576L700.8490170052083,335.54969176223307L701.5537436545138,335.03984088923386L701.9636301215278,334.75667504318244L702.5912730338542,335.66259768491295L702.7204956380209,336.5518028852213L703.1400601692709,335.08966437070313L703.5405411935765,334.05383466705547L705.1376944140625,334.6482176311783L705.3512933810764,335.87136297770206L705.6490642447917,335.514725050422L705.7987334635417,334.35523060206935L707.1617047916667,335.0712030022664L707.2697310720486,336.026640932977L708.3311148350695,335.77782774954323L709.5716790972223,335.4990105021691L710.0929996137153,335.0141233606401L712.1332309722222,336.13159046125503L712.3773635503471,336.118042907352L712.6175431163194,336.1377655285183L712.7134377387152,335.73251217329977L712.9857184895833,335.4435512305207L713.811829874132,336.03671656518776L714.0631869227431,335.9214735159688L714.0811799435764,335.90621254343966L715.2596546527778,334.8501116683302L715.7232475607639,335.9529049587131L715.7593017578124,336.1176567229884L715.9713331510417,336.1329523595686L716.0644334027777,336.40133012323275L716.7611177170139,336.2086486173956L717.4609371788194,336.4332099107916L720.1232908637153,337.0493828877689L720.4410312543403,335.8229351878866L720.4665895225694,336.15975287715617L720.5849754210069,335.4839377246624L721.0162626779513,334.7279654775256L721.0329607465278,334.5590737154741L721.9280453776041,335.4707831510472L723.010352842882,333.6867017988207L723.6155044791666,333.8120994033074L724.7536993576389,334.7322384094685L725.02959234375,335.63639066640667L725.550981015625,336.1134581798787L725.6694350694445,335.7268124425001L726.1023580555556,336.0175421688556L726.2572752387154,335.9827016487496L727.1497018098959,335.17914348023317L727.4591272439236,336.1665190479975L727.7978594921875,335.8487962136348L728.0418557595485,335.48335832648144L728.6887866449654,335.99155840214195L728.9322376692709,335.9181696681245L729.0642546440972,336.14175814149405L729.8701238802083,335.3482327479624L730.0409212673611,336.1077189934106L730.3040010416667,336.22151334550216L730.3070680338542,335.767851775745L730.4540791927084,335.5176606733763L731.1290219401042,335.9962887416333L731.9614036197917,336.322742494471L732.0110888932292,334.9202528332266L732.9495885026041,332.9681395785661L733.5147329296875,332.6079843364057L734.904080390625,332.24804512606187L735.4956009505208,332.57741223442105L735.9422231684028,333.4215057431089L736.2579188975694,334.74140766566995L736.478128936632,335.8117610428495L737.2662096180557,336.58356788962936L738.1747890147569,336.046516040045L738.8031816362848,336.31265846469995L739.5104981901042,336.3516749441925L739.8445277170139,336.55703866526756L741.4376597699653,336.0967569812035L744.5524970355902,335.4097592542012L744.5580176215277,335.57054031737295L744.7622793012152,336.2178885144982L745.5444304644097,336.00398803602036L747.1479221354166,335.60324473910964L748.2887069184028,335.73439507730706L749.4905589236112,335.5111101935473L750.8071845920139,336.5288357164301L751.0260315234375,336.96389907171954L751.3123522829861,336.92078593113007L752.185899813368,336.440786475382L752.2002124435764,336.6800321678173L752.233949357639,336.9311075327484L752.8962833593749,336.86281352165383L753.9934486979167,335.18159438032814L754.2710455685764,335.5881573549633L754.7640816015625,334.55784345093105L755.546232764757,335.176667299388L755.9816774999999,333.83360361425923L756.2592062152778,334.5918077674051L757.3129565755208,334.85521389068333L758.0188418663195,335.9080537893163L759.977286766493,335.70267321099215L761.1411762239584,335.48074798632337L761.8371108289931,336.37734134791526L761.9662652777778,336.6439164400854L762.295932860243,336.2886363863022L763.3950065494791,336.09325655018347L764.7019541536458,335.1863161988928L764.7393033029514,336.05346960197886L765.6932741840277,336.50470279411985L766.4120408420139,336.9340347795378L766.4257400737847,335.39178561313247L766.8331047916666,335.5206897342041L769.4615170963541,335.9469876988954L769.7587427170139,335.8913006296237L769.819878094618,336.6312808153221L770.2840844010417,336.66238381004064L770.4685810199653,336.6492605339676L771.4618775564236,335.36539691384877L771.6204751302084,335.8313760189431L771.6912885720486,335.54450732338375L773.2518423524305,336.0365619652403L773.3804515581596,336.5519879701216L776.8732104166667,336.3667110864472L777.3109042795138,336.76513599374067L778.8644380555556,337.09281764130765L779.3283717404513,336.9409429182496L779.7144719791667,336.69258577774696L782.1277177430555,336.063443905684L782.4235802560764,335.662819972162L784.9276771440972,335.66786978752026L785.4293689105904,336.10434855850514L785.5495268489583,335.2382636568206L785.6151604817709,335.1864692088L787.4950222265625,334.9512525497441L787.5378238064236,336.30980174889766L787.6420333854167,337.23306946227626L788.8821887152777,337.0085993942745L789.0858369965277,335.8946328232208L789.778704609375,336.6121887948138L789.8876850651042,336.4326644369123L792.0194491015625,336.3967921342132L792.2168952430555,337.2422143413947L792.4848822048612,337.4713618494533L792.5442455425348,338.091889104685L793.1001889930556,337.85056022189383L793.4905830208334,338.2470631459923L794.0521152126736,338.52382213342213L795.2613961545138,338.6027901009572L795.3690816579862,338.4529286645502L796.4841718619792,338.6718221071149L798.252054314236,338.84724953546277L798.6845002126737,338.4008833111337L799.2039805338542,338.37585280879625L800.5913514887152,338.61879740781643L801.5137664279513,338.7782394067332L802.7762085677083,338.7272275823178L804.2202166449653,338.64733733841445L805.8222770529513,338.5994275916429L806.313404735243,338.63127789287773L807.1271118402777,338.730235551501L807.2266186979166,338.3261353377886L807.4879264322917,338.59120842810125L807.5869562022569,338.2633307000229L808.8895418619792,338.54228536612675L808.9209614930555,338.7776880778616L809.1808379644098,338.7333669120336L809.2260931380208,338.7853564592737L809.4953068967014,338.8865959900025L809.9660561197917,338.5849519297273L812.3777343098958,338.77268704450967L813.4410945789931,338.9319515235965L814.1278963628472,338.89237213723675L814.4059021657986,338.94014964396627L815.554865594618,338.681483263638L816.2147460026041,338.78526648050035L816.3066194574653,338.52556530445406L816.662731328125,338.7745851143893L816.7338173914931,338.78171368283193L817.3117750303819,338.944442691356L818.1265726215278,339.04780995757454L818.3567333463541,338.99989902900717L818.9459366232638,338.62126125828433L819.6475281249999,338.81685002698686L820.8132577777777,338.6667477851791L821.9813728689236,338.5608443293474L823.655473515625,338.54391107426216L823.6700587673612,338.3156269243913L824.1684790755208,338.59416753165596L824.8445804644097,338.5065710545402L825.7139023611112,338.657766678127L826.1824706119792,338.730603913297L826.8781325954861,338.74144205811405L827.7347775911459,338.43051007005477L827.8558897048612,338.720131068035L828.4629496918402,338.861824279026L828.6450608723958,338.8477167522644L829.1681534288194,338.7187245376458L829.2316060894096,338.7411696439449L829.4288477647569,338.9188875409424L829.4456821440972,338.9728008127295L829.5515956076389,338.9315109067898L829.6008037934029,338.22205667869065L830.4800763758681,338.3308026150673L832.3356066493056,338.66258008078535L833.2345761371528,338.78606723390254L833.5259403949652,338.7526196265864L833.5945728645834,338.8677326483499L834.4129145355902,339.0188810276933L835.862102421875,338.96389357120745L836.5121002994791,339.02551274889953L837.2906392274306,338.9621458631006L837.3565454817708,338.9998470279649L839.6693983680556,339.0548135059576L840.3315960590278,338.90754364498105L842.777420095486,338.937555585197L843.6214563454862,338.9599615200984L843.7776684809028,339.05504674508984L843.779781297743,338.9169000608346L844.6369033810763,338.8110674262132L844.7176675086806,338.79746342177185L845.6315630251736,338.956782379717L845.9119542664931,338.7930502333048L846.4720551953125,338.95736558124605L846.5794680772569,338.9733435072536L847.1285278342013,338.56232287233854L848.1970679123264,338.4819856928894L849.4936558984375,338.69602709900244L849.8102376475694,338.90662090656605L850.0221327300347,338.75242316376307L850.0677968359375,338.87756988890186L850.4841580642361,338.7913224702117L850.7032776171875,338.97167405785893L851.4905404340278,338.98008937148506L851.6368018836806,338.90713802557343L852.5594894444445,339.0400673416537L852.6754899045138,339.0630904199526L853.4396480468749,339.1084379092878L854.1786568532987,339.12551485465286L854.7578412890625,339.088253320841L854.7678601302083,339.0023065641613L854.8090259809028,339.09517577718367L854.8176135590278,339.0962561099724L854.8693434939237,338.97231271921066L854.911736141493,339.0831241908465L856.5092301388888,339.15879849713895L856.9608958550348,339.1606317625105L858.381185859375,339.17740488647013L858.4034045138889,338.96148348107346L858.4187394748265,338.7877800711927L858.4737408680555,338.9694329376174L859.1292593315972,338.89447960303653L861.059215282118,338.9970487246588L863.0117988194444,338.82570592217104L863.0573947699653,338.822166884526L863.3118869661458,338.88503039374365L864.5818943532986,338.6091770276591L866.7223141232639,338.82392460096634L868.6240537456597,338.95736444360966L868.7011374826388,338.98488132384375L868.7228108940972,338.93970821002694L871.1856056206598,338.990505693289L871.3257330859375,339.0857751900199L871.7375279036457,339.1361853873609L873.7576534244791,338.65768480585217L873.816744140625,338.76770150266276L873.8652707725694,338.9251032111013L874.1811709678819,339.01734758848926L874.9065486979166,339.0661377364988L875.3103693359375,339.01821871950943L875.5046803298611,339.0591974093456L878.1574922612847,339.0719801973914L878.7782514800347,339.12253514885066L880.7912888411458,338.90094873215753L880.8909320095487,338.9575354964369L881.5761662196181,338.9434365306262L882.2265730295138,339.0243589380263L883.1277234895833,339.1036878914795L884.7535701258681,339.12748486560633L884.8733872873264,338.95052883116927L885.073900421007,338.7197061278361L888.213273624132,338.7709402892074L889.058536671007,338.95107358142764L889.1721516927083,339.0469052101863L889.1805348046875,339.08134347614384L890.3240458029514,338.80364544593345L892.270222734375,338.8643430174872L896.9138533723959,338.95857812138934L897.0209936328125,338.56668716281047L899.1601184505208,338.74260389613875L899.4319221137154,338.9276643194798L899.5687781206598,339.0415325575105L899.623643203125,339.12646611509604L900.4405536111111,338.7879059669943L900.8170439409722,338.9684812563532L901.1115433463542,339.07402556356925L901.2792055859376,339.1459319703327L901.9458333767361,339.15252341267217L902.2619380381944,338.6702799878145L902.6402685633681,338.8045448384897L903.7265290407987,338.88951422565157L903.9182501302083,338.96288196031463L904.4669691102431,339.02243677545334L904.9114785112847,338.98857106377295L905.1372772916666,338.62026765129457L905.2195408376735,338.69197110417144L906.4380227560764,338.8759263421826L906.577059735243,339.0271806132728L907.4687365972222,339.0988211978454L908.1282762282987,338.8796564996513L908.8207349088541,339.016974074459L910.310338936632,339.11310224125253L910.325060499132,339.03247466586987L910.9565882682291,338.9218265579521L911.1570332465278,338.9879983753343L911.6027012890626,339.0855402532499L912.0540943836805,339.15228951479816L912.10139421875,339.0257898300891L913.0535249045139,339.0878261478945L914.1566197612847,338.880809308971L914.8329937717014,339.0204589141382L915.5665501475695,339.11588587522925L915.9234117274304,339.16606103665566L918.5396242187501,337.7517799946712L919.399676983507,338.3135453422388L920.0395197092014,338.4536333900963L921.2440979296874,338.7537341098763L921.7557403819444,338.8307798171204L921.7774819487847,338.8379767321447L923.3154762977431,338.6867907468198L923.9719489366319,338.8856873389067L924.1877970312499,339.01307896231634L924.2915976779515,339.05028923425425L924.9884864583333,339.10719066707566L927.6234416796875,339.0564929784169L929.080194813368,339.06209458852584L929.4027742361112,338.6956989293574L930.0247602517361,338.7907712882634L930.9935208506945,338.9319705959488L931.3295268836805,338.9242768507659L931.6849572005209,338.9596287056172L932.1838545963542,339.0154345022902L932.8296268402778,339.10323610051455L934.1057682118055,338.8615407742678L934.6701629296875,339.0132605388542" style="fill: none;" fill="none"></path></g></g></g></g><g opacity="0.2"><g><g><g><path stroke="rgb(255, 112, 67)" stroke-width="2px" d="M122.6796875,49.02978162765504L123.18969422309027,22.44211635589601L123.29369933593749,76.09160194396975L123.37671259114582,90.32455854415895L123.47765071180555,81.46712083816527L124.98129474826388,132.5441499233246L125.48332729166667,150.86088728904724L125.89273667100694,158.1416372299194L126.62404391927082,201.82388978004457L126.76205856770832,145.38336825370789L126.92413206597222,160.9164041996002L128.36248324652777,198.8702720165253L128.460354375,188.62707772254942L130.63566970052085,211.00183515548707L131.89817999565972,255.14244117736814L133.35922691840278,145.19862108230592L133.49840020833332,240.03770155906676L133.84790100694445,217.98379335403445L134.85162531684028,234.66700942516326L134.8714585329861,251.96424872875212L135.30744851128472,256.50649082660675L136.31301301649304,256.8081139087677L136.8760446267361,242.75075430870055L136.93683922743054,246.48282873630524L137.70324649739584,282.46378749608994L137.77337838541666,246.29819841384887L138.23015575520833,262.87350897789L139.6826150998264,251.87911977767942L140.03184327690974,262.3122385501862L141.77164571180555,273.02079725265503L142.79070498263889,281.9021350622177L142.89286990017362,285.67319658994677L143.85720039930555,250.2027239084244L143.91458723090278,261.9370635509491L144.75180794270835,256.1566271066666L146.45214841145832,264.3458191752434L146.71257012586804,291.406327188015L148.9978200824653,281.0214041113853L149.7893085329861,289.4049609184265L149.98593680989583,275.9777182459831L150.14194447916665,293.8391536951065L151.30276694444444,269.43055946826934L152.39604742621526,287.74552162885664L153.80372868489584,292.1291682481766L154.2055728168403,293.10207054615023L154.7478170355903,301.54433945417406L155.12444367621526,300.9049869656563L158.81417158854168,303.47782772183416L158.9947151953125,282.4962625145912L159.14833742621528,303.54562932252884L159.86103825520834,305.9944349229336L160.1686234939236,305.6889153778553L160.66561253906252,301.1843233585358L160.7392203515625,302.25945724844934L161.08510891493057,298.434184551239L161.20819753472222,285.95315318107606L161.74723845052085,296.98571153879163L161.85172065104166,314.84340332746507L162.14472063802083,306.9757548391819L163.99861518229167,307.1186610996723L164.04584686197916,277.5533094286919L165.79539551649307,296.74120512008665L165.92039248697918,290.3622099518776L166.03107682725695,300.9917158484459L166.60760320312502,301.77799240350726L166.65906051649304,303.2896986722946L167.4137450607639,314.62978323102L167.6462230685764,302.65523586273196L167.7145147612847,303.93072974085806L168.55855101128472,309.13893218040465L168.9099601605903,304.40163998007773L169.4551350607639,299.8978524208069L172.3847259982639,313.6622694671154L173.91113393229168,287.9866574048996L176.3801307986111,306.107659304142L176.42511335069443,308.41820338964465L176.7009381814236,314.8541826426983L177.04048829427086,312.9074252784252L178.0063863671875,308.27315789461136L178.46071014322916,307.06559819579127L179.2419071310764,293.79266129732133L179.4841995138889,295.2416870951653L179.6425926215278,297.88910669088364L179.6654928298611,316.0943611741066L180.98082354600695,312.5868501961231L181.04318572048612,313.78963032364845L182.04384303819444,313.6169433116913L182.89040103732637,310.2836900651455L183.41778738281252,326.4563807338476L183.8247431684028,319.73112281560896L183.8383060894097,316.4469056785107L184.06315069444446,319.99703056812285L184.31109997395833,302.33005423545836L184.64097202256943,306.0602748095989L185.41099152777778,322.43551750779153L185.43136998697918,323.5970162510872L185.4933232291667,321.09342984259126L185.58240231336805,317.1613605797291L185.64524157552083,318.5355199098587L185.7082171484375,310.65242713689804L185.91649999565973,320.33293533325195L186.46978538628474,310.0442148923874L186.93235596354168,318.40018860697745L187.05857973090278,327.7085036993027L188.714482890625,312.39183155298235L189.50590318576388,311.2697423636913L189.64718929253473,319.7965919315815L190.80992010850696,314.79838951826093L190.85946907118054,322.70378920435905L191.1817077170139,322.0640367329121L191.9331208029514,316.0229395031929L192.4254071267361,315.98102443814275L192.8924759592014,314.66431883573534L193.08528753472223,314.264823526144L194.68564405815974,311.30071632266043L194.88717952256943,321.90121222138407L195.82724670572918,291.1503695726395L196.5079145052083,313.9807210445404L198.3845047916667,324.7021848142147L198.51052409288195,316.5499192595482L199.50797810763888,321.6448647350073L201.14111736979166,321.9077591329813L201.7145085980903,326.36781597435476L204.24061967447918,317.8164854288101L204.35914188368054,323.2259264707565L204.51910256510416,316.99210488200185L204.83561615885418,329.16222592592237L204.96851915364584,318.11673778295517L205.1834812282986,318.65164079666135L205.2679257465278,324.95085397660733L205.35666405381943,320.6495128333569L206.3789266276042,318.0605491697788L206.62857979166665,318.5140331864357L207.48270303819444,330.6229484155774L207.70856997395833,316.770606470108L207.97328547743055,324.15863048434255L209.27907444010415,321.0960488319397L209.41340869791668,327.35298404097557L211.07912623263888,315.34456845521925L211.81772610677083,317.73732700943947L212.2024632378472,323.6417862504721L212.72269326822916,323.4982024908066L214.73941101996527,322.2807724267244L214.86897440104167,320.6444928228855L216.2230855295139,326.9505113303661L217.65727923177081,322.5511687517166L218.18534713107638,324.92014966905117L218.34080955729166,330.73188421577214L219.46844035156252,323.21041140258313L221.12965963107638,331.90415047705176L221.50533209635418,324.05038566589354L221.5628552387153,329.85231445133684L221.8174837456597,326.3454113125801L221.84297385850692,323.54605101048946L222.44710316406253,313.2733871877193L223.2823473697917,314.4296704232693L225.03128262586807,327.97718998491763L226.81381848524305,322.91397573947904L227.94294869791665,321.19786471128464L228.25482772569447,318.1741870164871L228.40061208767364,324.8754718005657L228.69865557291666,327.0464544266462L228.75311172309026,316.2786499381065L232.29991779947918,328.0835719615221L232.34646792534724,322.875378510356L232.3757747395833,323.71445842981336L233.38501963541668,325.06243685483935L235.1093507986111,328.49208598732946L235.11971041666666,330.85078925341367L235.6085208159722,326.3036816328764L237.1416761328125,322.42092262506486L238.7593441232639,326.7641777098179L239.4434878472222,325.951140499115L241.65935562500002,325.5524912208319L241.98432048611113,321.71139785051344L243.2608026345486,328.98635702729223L243.86888495225696,328.77395373284816L244.55991236979165,326.5875594049692L245.2497811458333,326.4719609677792L245.32257109375,326.3246773660183L247.41337374565975,326.88548039793966L247.73097782552088,328.0779913008213L247.80778894097224,327.50203610658644L248.69387706163198,323.4203743517399L250.43831406250004,324.06166383624077L251.97521792534724,332.9089165836573L252.4311092751736,324.5917277306318L252.87466450086808,326.77130549550054L253.41288755208336,331.2855027228594L254.3542496875,321.9115376234055L254.55857952256946,326.6036193937063L254.6933227126736,327.47311823964117L255.46402377170136,329.1402122586966L256.22211608506944,323.4268875569105L257.2147310677084,328.6371573239565L257.31219326388884,328.5767565310001L257.34926979166664,332.6214142471552L257.40522536024304,335.65921970978377L257.4479587847222,330.75839319676163L257.89274080729166,325.54907788336277L258.79511806423614,325.37577629089355L259.29183448784727,328.4200856894255L261.48084904513894,329.65502848923205L264.0363350911459,329.51524456739423L265.437064500868,330.6262207478285L265.8915927430555,328.2141270637512L266.2117867274306,331.57716836482285L266.40814238281246,331.4077199786901L266.59945453993055,320.27499173879625L266.6107001779514,331.0107009679079L269.1289052300348,331.0603185132146L270.0789230989583,330.2267512798309L270.49371675347226,335.0242246195674L270.5172303602431,331.5950923189521L270.58197797309026,327.90523125827315L270.63636596788194,330.9441661670804L272.54798812065974,330.98815923333166L272.6652835329861,322.15402278006076L273.14305276041665,326.6244274944067L273.1691562717014,321.6276441216469L273.4551362543403,329.6512769639492L273.51743027343747,331.41633253246545L274.3224134895833,329.1117674052715L274.3540375868056,330.1286369279027L277.66897905381944,328.87190348505976L278.5042914149306,326.2362036138773L280.77761417968753,321.03186168372633L281.1060549652778,328.2521849900484L281.91764925347223,316.51174785494806L283.6580650868055,329.5212555468082L285.12224715711807,329.38513888418674L285.27321132812506,335.84165827184916L285.5140042925347,323.91202640235423L286.3202143055555,332.84097791016103L286.7777413845486,333.5594332024455L287.7426171267361,307.87267835736276L288.6399508854167,328.74476059675214L288.88122093749996,334.2052264273167L289.94458120659726,331.28541789501907L289.9715025824653,330.8509493589401L291.1640173003472,331.06583850234745L291.62093098090276,329.9735424235463L293.8422511892361,327.1237780928612L294.5443879340278,333.65862222760916L294.5820778602431,333.5743061631918L295.37935951822914,327.91875315308573L296.67758323350694,332.1592210516334L297.4112077647569,332.8185990899801L297.99318657118056,331.80974383205177L298.7184279904514,322.7593733489513L299.9531990451389,328.2965977013111L300.37685289930556,327.71448771357535L300.83615201822914,332.7802069082856L301.54026526909723,315.5526292383671L301.7100403255208,333.47093360871077L303.2624836154514,330.6334142610431L303.6510374479166,329.86725313961506L305.95577984375,329.63844829797745L306.43532111111114,329.3046524316072L306.825578828125,318.4284930169582L307.26402240017364,329.13573829233644L308.40923728298617,332.00757752358913L309.3514172829861,305.49765387773516L309.9638615451389,334.3282481431961L311.15317296006947,332.6548948407173L311.7677300390625,332.9130984276533L311.86614641059026,328.83366242051125L311.9997991145833,327.19660195112226L312.1306574479167,329.5197904407978L312.57182723524306,335.66066627725957L313.7323089236111,325.1776038497686L313.76584137152776,331.8260420128703L315.5213876996528,331.2721392482519L315.5736628776042,331.3758185312152L315.6660815755208,334.56129044443367L315.7253086024306,330.8766550034285L315.74159773871526,330.5405463144183L316.7548638020833,331.95592523366213L317.491350859375,334.11734478473664L318.04129663628476,326.65948779582976L318.3073070920139,334.0558828011155L319.2586199131945,330.50186762809756L319.30585159288194,329.69732556045057L319.5948985677083,331.02070054113864L320.33070407118055,335.3643800459802L320.90573102864585,331.66887456327674L320.9308803645833,333.4311628341675L321.9095916493056,336.7271134592593L322.40787564670137,329.9099204197526L324.7233184375,330.80520692914723L326.169711953125,335.1196503221989L327.54685960069446,328.7058049559593L328.60865229600694,328.8749808818102L329.29265970920136,333.37421975880864L329.61735194878474,332.1350754529238L329.9959550954861,330.21776907891035L331.1026621875,333.9021820574999L331.3219862065972,327.0324673831463L332.11579194010415,327.97109586298467L332.48335391493055,331.7936293512583L334.3142119401042,328.7132046401501L335.03270597656245,333.1220956876874L335.9023004947917,328.81963605284693L336.3040764713541,332.1953914180398L336.9980345703125,328.9974397003651L338.3402866623264,335.8829461164772L339.20068020399304,329.55135987997056L339.22058157552084,332.84825625121596L339.8247108810764,333.7405743479729L341.3370106510417,328.6808498412371L341.40359845920136,334.3755028679967L341.5255284375,329.453556188941L342.1335425998264,333.3650297015905L343.1371305989584,333.1345007762313L343.45759720486114,332.246002741158L343.81548111545135,334.91137690767647L344.2388623480903,328.19801314473153L345.7820365060764,336.0912021160126L346.29217953993054,333.56025395393374L349.82549085069445,331.7165730893612L349.8271265798611,328.90076854526995L350.0576280815972,330.08132096976044L350.1071088888889,336.1694892242551L350.1758776692708,332.7132710009813L351.0708941449653,327.1318485349417L351.7055570616319,325.47076661884785L352.56908575086806,333.2477156072855L352.58966867621524,332.73085564374924L353.32697359809026,317.06234907507894L354.50749296875,335.43642416223884L355.3841074913194,324.78411839604377L357.551176015625,332.69566781967876L361.68759430121526,323.80334452390673L361.8469415842014,334.71478614062073L362.8082050911458,329.7875396877527L364.74047832465277,329.9121562793851L365.02468626736106,334.3372758477926L365.1752415060764,334.2793884307146L365.33806471354166,329.8662520587444L366.2079318532986,335.107723864913L366.45295045138886,331.74785939455035L369.5152399175347,330.3047923311591L369.6055457986111,333.56338752806187L369.8459298307292,334.12800949811935L371.3679758203125,329.54877010285855L371.7676389800347,331.21876905411483L372.4386968706597,331.11837614774703L373.54022415364585,333.67531758248805L373.7896728515625,329.667539191246L374.5780261545139,334.46387718617916L374.5999040321181,331.7156467244029L374.74541577256946,336.2644596092403L375.4446899913194,331.5599859520793L376.87438543836805,331.61590210497377L377.31385134114583,333.58817635774614L378.07528326822916,333.9611666187644L378.8664309418403,331.9802983507514L378.87495036458336,333.74850547015666L379.7026974782986,327.43231998085975L380.5738595703125,335.0006180427969L383.52614625,334.6134090065956L384.0777277560764,334.02083429694176L384.3243139279514,334.22388237267734L384.40201106336804,330.2617576509714L385.46196356336804,334.56312688291075L385.5322999175347,332.89426608532665L385.58246227864583,332.99961608350276L385.59902403645833,335.2272255063057L385.73458509114585,329.33086591959L386.95368040798616,331.82896829247477L387.3577055121528,330.932198138535L387.7546424565972,336.1013955011964L388.9914581727431,335.80514297634363L389.05177568576386,332.3821677163243L389.5758224175347,331.3248061016202L389.57752630208336,331.2218026325107L390.7125860329861,334.6847848929465L390.9521522005208,335.4664588354528L391.4502317317708,330.58643424361946L391.87456713975695,330.6974592804909L392.65276529079864,334.33460292816164L392.87168037760415,334.17159134596585L393.56223070746523,336.07791307643055L393.6611923220486,333.01024989932773L393.86804390624997,330.963626010716L397.48027914930555,335.8832550920546L398.1386601388889,335.77392605021595L399.6808119661458,334.54664387851955L401.05318873697917,334.4100013956428L401.4479447092014,329.44411838948724L401.65159299045143,336.4836991287768L401.7482373220486,335.04839465543625L401.87050807725694,333.89574244469406L401.8773236154514,336.17492747530343L403.33646218750005,334.1790713638067L403.90262894531253,336.6145328707993L404.2482448871528,336.31553299129007L405.90626086371526,337.2083705883473L406.08407825520834,330.3976181447506L406.3833485373264,330.14672211110593L406.40624874565975,333.10255213975904L406.4675204340278,332.1660685122013L406.5357439713541,334.07053217589856L406.69659067274307,331.8442300006747L406.7797402387153,333.22230039983987L407.40199887586806,332.6827543258667L409.2175900954861,332.2252193585038L409.6376317144097,336.51298186779024L411.13650487413196,332.1592732965946L411.3529663671875,335.16600648984314L413.17121564670134,331.82673692703247L414.2253067838542,331.8317007601261L414.8920708854167,334.1508933529258L415.12155005642364,335.0550056092441L415.14663123697915,327.4578099042177L416.87103055555554,331.4338014498353L417.7217460329861,333.94811998456714L417.75459692708336,332.8331428512931L417.86671253038196,333.57768186181784L418.1495573654514,335.4117372944951L418.40957014756947,334.5075067847967L418.7483705512153,332.9449554949999L419.4349678689236,333.3406335517764L422.2082103602431,335.38392808809874L423.0226671744792,334.00466869473456L423.7682870529514,332.60013594180344L423.8584566232639,334.96090485006573L424.1612028298611,330.11648969352245L424.2240420920139,331.04315407723186L424.83471431423607,330.2424382507801L425.6116856684028,328.7460178464651L425.6578950173611,333.44645094573497L425.9570971440972,331.10244817584754L427.1294378689236,334.45608369857075L427.4531077777778,334.03506683558226L427.5611340581597,326.40446834266186L428.36550387586806,333.0961928606033L428.7196392404514,333.51746420711277L429.7534882291667,330.4152157083154L432.16700661458333,334.75085594952105L433.76184255208335,335.8565865673125L433.98914075086805,335.3305969372392L434.33857339409724,333.5385795980692L435.3500674175347,335.39678371921184L435.38925676215274,328.7006602317095L436.59901479166666,326.7344902127981L437.07944207899305,333.7687928065658L437.3558803081597,331.9922248080373L437.7804883376736,330.8207057058811L438.6110298220486,331.9661483928561L438.8555713324653,334.0608359605074L439.2038453342014,335.88606480360033L439.93188112413196,336.4824991799891L440.970978077257,327.1807824015617L441.3676424001736,331.86670825481417L442.0845007074653,335.81314684823155L442.24118993055555,331.6344883903861L442.6315158029514,331.13881235420706L443.1552899131944,331.9697628453374L444.52037405815975,332.11095569580795L445.3712940017361,334.69277528226377L445.43720025607644,334.37289230525494L445.453625703125,338.32606558315456L446.8894551345486,337.2349754922092L447.8423355295139,335.04038825556637L448.0468698307292,332.41837572157385L448.1890419574653,329.20769814252856L448.5592619921875,336.8222301863134L449.0069746961806,333.60189712047577L449.3328937326389,332.78273545205593L450.6333665755208,335.5834378316998L451.0251237109375,334.13758830279113L452.07389872829856,334.7607167646289L452.24864912760415,336.0172535866499L453.7959126085069,333.83646969348194L454.13682582899304,333.5461393877864L454.650990030382,337.3197373241186L455.6656192013889,337.20115249752996L456.67200157118054,334.34290425926446L456.9971708984375,335.05556569769976L457.7010115277778,335.3614635974169L458.4928407552083,333.1468142956495L458.7239556553819,328.5974691301584L459.5694231684028,332.070652359724L461.04662291666665,337.89198832251134L461.6465947439236,338.3981113145128L463.0595921223958,334.82402642220256L463.0662031944444,333.84405363947155L463.1609391753472,334.1668117746711L463.94077305555555,334.93706401363016L464.24672256510416,332.4555100917816L465.0216492578125,335.2540844723582L466.46109092447915,331.96149522066116L466.5517375824653,332.93737716674804L466.6435428819444,332.20402981340885L466.65178968315973,335.4671256609261L467.28059123697915,334.26064372509717L467.3610827430556,333.8936161309481L467.36449051215277,332.72338573783634L467.73539210069447,334.2536839097738L467.92445513020834,334.3557952821255L469.027754453125,333.2171152278781L470.0451098394097,328.13439226448537L470.7479281380208,332.0539654314518L471.69712814236107,335.42307164222L472.53911973090277,330.9303560823202L472.9312857986111,333.1774865821004L473.71071074652775,336.51062887832524L473.7588966015625,333.9582291036844L474.83363881944445,337.0091144856066L474.91787887152776,334.58023963570594L475.7122980034722,331.59335138201715L475.83899885850695,335.7734991021454L476.4772740104167,334.59796837344766L476.555448233507,335.2642011754215L478.90680891059026,330.8090101376176L478.919349500868,334.8394957058132L479.0249221875,335.5940160319209L480.2421091536458,337.4656289909035L480.950925125868,336.6257902555168L481.13276368489585,334.662974306941L484.53133180555557,334.94113743528726L489.18273215711804,336.1100406378508L490.5147609418403,333.9601245284081L490.6959179470486,337.7485184624791L491.08692537326385,336.98059168606994L492.76797786892365,327.94496439397335L493.1548959722223,335.80831250399353L493.24826884548605,337.56500115431845L493.99927299913196,332.6528915554285L495.97836898003465,337.58600166253746L497.27154919704856,336.3024352356791L497.2783647352431,331.3021194294095L497.9662570052084,335.8594886906445L498.0134205295139,334.24104680866003L498.80006994791665,334.8149563036859L498.80565868923617,337.54247248098255L499.72657421006943,336.0426421098411L499.8167437803819,333.06453129053114L502.0429030208333,336.42660381272435L502.6862898263888,333.28369946479796L502.9103847222222,336.05799201652405L503.7788205989583,336.0062001258135L503.9841727647569,333.7714224696159L504.8189398828125,335.9932180956006L505.41223248263896,333.31047865897415L507.07658690972215,336.7066938251257L508.1175240581597,336.00019055083396L509.40811437065963,335.03195855915544L510.70988216579866,336.830849481374L512.4430735286458,336.79372494220735L513.3795284765625,334.8398490615189L514.7596749609376,334.7127137571573L514.9064816536458,335.5476871103048L514.9278142881946,336.6748996764421L515.6064374262153,324.67634209692477L515.918452764757,331.3225758597255L516.7190740364583,335.9574842274189L517.8600632855903,335.18840216323736L518.1936838802083,335.86423034220934L520.0924928211806,329.9787910759449L521.004548142361,335.0650088340044L523.5131432855903,334.8648760832846L523.8003500651042,336.6829959601164L524.9371818359375,336.0038833707571L525.4625916753472,333.3303294971585L525.5184790885417,335.9774932049215L526.3336174565972,329.8825524866581L526.4372817925347,335.3177123747766L526.5302457335068,334.2725937768817L527.710356171875,338.3380013799295L528.9123444878472,336.62601693123577L529.0256187326389,337.8596111930907L529.0723733246527,336.6218951970339L531.5658379730903,336.28018169105053L532.1626064973958,334.48308479338885L532.4451105555555,336.0673315055668L533.0646429774305,335.062480571121L533.1049909635417,331.92112671881915L535.6559105989584,335.3868785239756L536.1337479817709,333.2288827031851L536.2634476736112,336.1156448930502L536.9587688802083,335.3881250999868L537.8966550911458,336.56381115913393L538.0949872526041,337.2200186867267L538.8487176215277,335.5938632294536L540.1859262152778,338.3108873685822L540.3484768012153,325.47910783588884L543.1874892361112,334.2230453297496L545.5577971093751,330.42211429029703L546.3214781640625,334.555399684608L548.2519793576389,334.61769196987154L548.4165064496528,333.0661014482379L548.4375664626737,334.048394356668L548.838115642361,337.3405607331544L550.3874237847222,337.6192325476557L551.4893599999999,336.67928993850944L551.4926314583333,335.5028230138123L551.8307503081597,336.40395056605337L552.6786714149305,335.78639124855397L552.6836467578124,337.47063846811653L553.3788998090279,336.7020465515554L553.859395251736,333.62421246021984L554.1182493923611,334.65351319387554L554.496170985243,336.28416550979017L555.1102509765625,330.7940051600337L555.6280955685763,336.0283789545298L555.8395135633681,333.7061325594783L557.0897558897569,333.3059580653906L558.9808632725695,336.63412276506426L559.1721072743056,338.15286834016445L559.3683947743056,336.04696720615027L559.7762365798611,335.3318187952042L561.6758633854167,336.51508795768024L561.6794074652778,336.2697843819857L561.7027847612848,335.46966628283263L561.9704991015625,335.1692636542022L562.2737905512153,337.7156919140369L562.491342530382,335.8359910979867L563.5302350173612,336.06633182913066L564.8067853211805,337.99770361408594L565.0706148046875,331.8191614076495L565.3396922526042,337.4810017898679L565.5037422569445,334.6191461212933L567.2271874001736,330.5692872226238L568.3756737413195,335.4494573138654L568.6782154817708,335.3244323126972L662.513318546007,337.455307661742L663.7288697829861,337.8516172926873L664.1630195659723,334.42903541475533L664.7009699956598,334.2729375824332L665.0335682595486,332.19360216856L666.0744372526042,334.8863465152681L678.5278567968751,332.295085477829L681.2456889626735,335.4376423686743L681.4086484809027,335.9677073866129L682.154200203993,333.5508549168706L682.7707337890625,335.2997204460204L684.9917132204861,337.48250088319185L687.4022327690972,334.29971621483566L688.9345702213542,333.97948887050154L689.6607658159722,333.31146850436926L691.3378652994792,333.5351022183895L692.3087387152779,335.3625506296754L692.5222695269097,336.3435115724802L692.7794879383681,332.67517824470997L693.8131324609375,333.9794461756945L694.0534483376736,331.72411096990106L695.1047451041666,336.88539631068704L695.2389430512153,335.3130361698568L696.4662851692708,333.63354183733463L697.0605319444445,337.0985374949872L697.0952230338542,337.5844858564436L697.4310246006945,335.5564945995808L698.6591845833334,336.0311760261655L699.2057907465278,336.1306439720094L699.416459032118,335.6115821361542L700.2148993315973,336.2704357586801L700.3822207942708,338.02660813890395L700.4046439149305,337.1159960195422L700.8490170052083,333.23030511438844L701.5537436545138,334.1566565901041L701.9636301215278,334.26616371423006L702.5912730338542,337.231873517856L702.7204956380209,338.09212009012697L703.1400601692709,332.55688891112806L703.5405411935765,332.25952856838705L705.1376944140625,335.67783183678984L705.3512933810764,337.9901448074728L705.6490642447917,334.8969424113631L705.7987334635417,332.34670743197205L707.1617047916667,336.31143934577705L707.2697310720486,337.681689151749L708.3311148350695,335.34682349190115L709.5716790972223,335.0160319916904L710.0929996137153,334.17418224662543L712.1332309722222,338.0673121601343L712.3773635503471,336.0945752866566L712.6175431163194,336.1719298504293L712.7134377387152,335.0305159240961L712.9857184895833,334.94300140067935L713.811829874132,337.0642215438187L714.0631869227431,335.7218448460102L714.0811799435764,335.87977686971425L715.2596546527778,333.0206910267472L715.7232475607639,337.8632080901414L715.7593017578124,336.4030463911593L715.9713331510417,336.15944807976484L716.0644334027777,336.866224937886L716.7611177170139,335.8748779214919L717.4609371788194,336.82220406383277L720.1232908637153,338.11674263477323L720.4410312543403,333.6984328880906L720.4665895225694,336.743202098459L720.5849754210069,334.3132633894682L721.0162626779513,333.4184397816658L721.0329607465278,334.2665125757456L721.9280453776041,337.05008310228584L723.010352842882,330.59624393731355L723.6155044791666,334.02931820452216L724.7536993576389,336.32614040374756L725.02959234375,337.202599767223L725.550981015625,336.93985381796955L725.6694350694445,335.057049061358L726.1023580555556,336.5211559571326L726.2572752387154,335.92234949097036L727.1497018098959,333.7871875271201L727.4591272439236,337.8768909331411L727.7978594921875,335.298423872143L728.0418557595485,334.85033204108476L728.6887866449654,336.87188312336804L728.9322376692709,335.7910427354276L729.0642546440972,336.5290671363473L729.8701238802083,333.97365597337483L730.0409212673611,337.42333177924155L730.3040010416667,336.4186325237155L730.3070680338542,334.9820008598268L730.4540791927084,335.084269528836L731.1290219401042,336.82538763582704L731.9614036197917,336.8882388859987L732.0110888932292,332.49080352932214L732.9495885026041,329.58661006093024L733.5147329296875,331.98410886228083L734.904080390625,331.6245438709855L735.4956009505208,333.1479552581906L735.9422231684028,334.8836786516011L736.2579188975694,337.0277951490134L736.478128936632,337.66587044484913L737.2662096180557,337.92052291929724L738.1747890147569,335.11621310934424L738.8031816362848,336.77368113473057L739.5104981901042,336.41926086768507L739.8445277170139,336.9127780072391L741.4376597699653,335.2994384355843L744.5524970355902,334.21971401125194L744.5580176215277,335.84905177652837L744.7622793012152,337.3392512384802L745.5444304644097,335.6334609776735L747.1479221354166,334.90906099528075L748.2887069184028,335.9615789964795L749.4905589236112,335.12432708889247L750.8071845920139,338.2917810210958L751.0260315234375,337.7175334084779L751.3123522829861,336.846103605628L752.185899813368,335.6093120083213L752.2002124435764,337.0944632306695L752.233949357639,337.36603043265643L752.8962833593749,336.7445118740201L753.9934486979167,332.26931859999894L754.2710455685764,336.29242217987775L754.7640816015625,332.7730920433998L755.546232764757,336.2486189931631L755.9816774999999,331.50709438920023L756.2592062152778,335.9051996611059L757.3129565755208,335.3114966288209L758.0188418663195,337.7318256355822L759.977286766493,335.34690466821195L761.1411762239584,335.0963201381266L761.8371108289931,337.9304566245526L761.9662652777778,337.1056885942817L762.295932860243,335.6732059106231L763.3950065494791,335.75481169745325L764.7019541536458,333.6152774482965L764.7393033029514,337.555587792024L765.6932741840277,337.2863471761346L766.4120408420139,337.6777410056442L766.4257400737847,332.72023924291136L766.8331047916666,335.74398266524076L769.4615170963541,336.68543827161193L769.7587427170139,335.7948372364044L769.819878094618,337.9131044156849L770.2840844010417,336.7162616752088L770.4685810199653,336.626527864486L771.4618775564236,333.14143643528223L771.6204751302084,336.6385638676584L771.6912885720486,335.04758176878096L773.2518423524305,336.8889189131558L773.3804515581596,337.44482973814013L776.8732104166667,336.0457669764757L777.3109042795138,337.4553037293255L778.8644380555556,337.6604410417378L779.3283717404513,336.6778593815863L779.7144719791667,336.26237149611114L782.1277177430555,334.97361891418694L782.4235802560764,334.9688429944217L784.9276771440972,335.676617281884L785.4293689105904,336.8604347355664L785.5495268489583,333.7379963681102L785.6151604817709,335.0967487715185L787.4950222265625,334.5438007414341L787.5378238064236,338.6631356075406L787.6420333854167,338.8323911297135L788.8821887152777,336.61976326555015L789.0858369965277,333.96497488319875L789.778704609375,337.8551682647318L789.8876850651042,336.1216850847006L792.0194491015625,336.3346526809037L792.2168952430555,338.7066888751462L792.4848822048612,337.8683004289866L792.5442455425348,339.16679150855634L793.1001889930556,337.43252057246866L793.4905830208334,338.9339015445672L794.0521152126736,339.0032352427952L795.2613961545138,338.73958160756155L795.3690816579862,338.1933326244354L796.4841718619792,339.05099817975423L798.252054314236,339.15113202063367L798.6845002126737,337.62766968756915L799.2039805338542,338.33249396048484L800.5913514887152,339.0396358662285L801.5137664279513,339.0544312846381L802.7762085677083,338.63886283729227L804.2202166449653,338.50894822739065L805.8222770529513,338.5164363909513L806.313404735243,338.68645027261226L807.1271118402777,338.9016540093347L807.2266186979166,337.6261366069317L807.4879264322917,339.0503787539434L807.5869562022569,337.69536764100195L808.8895418619792,339.0255019188859L808.9209614930555,339.1854621741455L809.1808379644098,338.6565919963643L809.2260931380208,338.87541485531256L809.4953068967014,339.0619671989698L809.9660561197917,338.06243189089L812.3777343098958,339.0978894018102L813.4410945789931,339.2078358944738L814.1278963628472,338.8238111237064L814.4059021657986,339.0229117731098L815.554865594618,338.2334108998999L816.2147460026041,338.9650439654477L816.3066194574653,338.07570042572917L816.662731328125,339.2059472988127L816.7338173914931,338.7940620773472L817.3117750303819,339.22632846022026L818.1265726215278,339.22686691599665L818.3567333463541,338.91690578116106L818.9459366232638,337.96536960080266L819.6475281249999,339.15565680118743L820.8132577777777,338.4067346122116L821.9813728689236,338.3773940807208L823.655473515625,338.5145786050707L823.6700587673612,337.9201838888228L824.1684790755208,339.07666683495046L824.8445804644097,338.35483289472756L825.7139023611112,338.9196738512255L826.1824706119792,338.85677551738917L826.8781325954861,338.76021633083L827.7347775911459,337.8919011071324L827.8558897048612,339.2218242721865L828.4629496918402,339.10727098877544L828.6450608723958,338.8232791239396L829.1681534288194,338.49527900740503L829.2316060894096,338.78004996469247L829.4288477647569,339.22673766852824L829.4456821440972,339.0661915622186L829.5515956076389,338.8599868620746L829.6008037934029,336.99311137646436L830.4800763758681,338.5191767234355L832.3356066493056,339.2372984230402L833.2345761371528,338.9999766740017L833.5259403949652,338.6946803286672L833.5945728645834,339.06713607949206L834.4129145355902,339.280706362403L835.862102421875,338.86864207554606L836.5121002994791,339.1322519802023L837.2906392274306,338.8523791811429L837.3565454817708,339.0651545102708L839.6693983680556,339.15002866182476L840.3315960590278,338.65243683662266L842.777420095486,338.9895434816368L843.6214563454862,338.9987739865668L843.7776684809028,339.21975721679627L843.779781297743,338.67759678810836L844.6369033810763,338.62773985695094L844.7176675086806,338.7738980151713L845.6315630251736,339.2327611210756L845.9119542664931,338.50942678842694L846.4720551953125,339.2419992713956L846.5794680772569,339.0010211167857L847.1285278342013,337.8503363080323L848.1970679123264,338.3428223820403L849.4936558984375,339.06679827789776L849.8102376475694,339.27142001584286L850.0221327300347,338.4853155983612L850.0677968359375,339.09435410676525L850.4841580642361,338.64192120395603L850.7032776171875,339.2840863708872L851.4905404340278,338.99466671803964L851.6368018836806,338.7807687542401L852.5594894444445,339.2703328782518L852.6754899045138,339.10297192716973L853.4396480468749,339.18699066403786L854.1786568532987,339.1550962299574L854.7578412890625,339.0237073852215L854.7678601302083,338.85342611679806L854.8090259809028,339.2560475833481L854.8176135590278,339.09812750611457L854.8693434939237,338.75761296581476L854.911736141493,339.2750763029151L856.5092301388888,339.28988459055256L856.9608958550348,339.1638074189192L858.381185859375,339.2064599700505L858.4034045138889,338.58745569139717L858.4187394748265,338.48688400052487L858.4737408680555,339.28409937836403L859.1292593315972,338.7646424059756L861.059215282118,339.17472310473676L863.0117988194444,338.5288989910856L863.0573947699653,338.81603642040864L863.3118869661458,338.9939251064323L864.5818943532986,338.1313326722011L866.7223141232639,339.19591903123074L868.6240537456597,339.18851433496457L868.7011374826388,339.03254717648963L868.7228108940972,338.86145751560105L871.1856056206598,339.0784991479013L871.3257330859375,339.25080486468505L871.7375279036457,339.2235079696402L873.7576534244791,337.82880674935876L873.816744140625,338.9582768736407L873.8652707725694,339.1977608153364L874.1811709678819,339.1771370291011L874.9065486979166,339.1506540038157L875.3103693359375,338.93521146057174L875.5046803298611,339.13018235294146L878.1574922612847,339.094123059744L878.7782514800347,339.210108480067L880.7912888411458,338.5171077808365L880.8909320095487,339.05555737772954L881.5761662196181,338.91901373192667L882.2265730295138,339.16453600439706L883.1277234895833,339.2411047124886L884.7535701258681,339.16870694647076L884.8733872873264,338.6439984327182L885.073900421007,338.31986570730805L888.213273624132,338.8596901752986L889.058536671007,339.2631077542901L889.1721516927083,339.21290863268075L889.1805348046875,339.1409988330212L890.3240458029514,338.32260568868367L892.270222734375,338.9694858053699L896.9138533723959,339.1218159789685L897.0209936328125,337.88783779740334L899.1601184505208,339.0473339751828L899.4319221137154,339.2482334681088L899.5687781206598,339.2387797239353L899.623643203125,339.27359145801745L900.4405536111111,338.20143838804216L900.8170439409722,339.28128107453233L901.1115433463542,339.2568536804407L901.2792055859376,339.27049115581906L901.9458333767361,339.16394137563185L902.2619380381944,337.8349184267223L902.6402685633681,339.0371238421183L903.7265290407987,339.03670163401404L903.9182501302083,339.0899725170806L904.4669691102431,339.1256000344641L904.9114785112847,338.929907508567L905.1372772916666,337.98227758705616L905.2195408376735,338.8161787247285L906.4380227560764,339.1945810440928L906.577059735243,339.28918937794805L907.4687365972222,339.22291991538367L908.1282762282987,338.5000105470419L908.8207349088541,339.2548411302734L910.310338936632,339.2796193389222L910.325060499132,338.892808319442L910.9565882682291,338.73015743112194L911.1570332465278,339.102623873204L911.6027012890626,339.25450623849173L912.0540943836805,339.2679152848024L912.10139421875,338.80666196094825L913.0535249045139,339.1952879661694L914.1566197612847,338.5222063694149L914.8329937717014,339.2623656072421L915.5665501475695,339.28118831602626L915.9234117274304,339.2529764802195L918.5396242187501,335.30190518423916L919.399676983507,339.28665799348965L920.0395197092014,338.69629957135766L921.2440979296874,339.27358071189957L921.7557403819444,338.9642415067181L921.7774819487847,338.8504435193725L923.3154762977431,338.4249002695084L923.9719489366319,339.2302240585326L924.1877970312499,339.23375188374195L924.2915976779515,339.1147463719826L924.9884864583333,339.2057576299412L927.6234416796875,338.96867239205164L929.080194813368,339.0717979240697L929.4027742361112,338.0610135525465L930.0247602517361,338.9554594728164L930.9935208506945,339.17656174642036L931.3295268836805,338.91094943424685L931.6849572005209,339.02086661811916L932.1838545963542,339.112103559915L932.8296268402778,339.25532957940595L934.1057682118055,338.44286635667083L934.6701629296875,339.27607565018695" style="fill: none;" fill="none"></path></g></g></g></g></g></g><g transform="translate(51, 377)" clip-path="url(#clip_1)"><clipPath id="clip_1"><rect width="981" height="23"></rect></clipPath><g><g><line x1="0" y1="0" x2="0" y2="5" style="visibility: inherit;" fill="rgb(0, 0, 0)" stroke="rgb(204, 204, 204)" stroke-width="1px"></line><line x1="122.6796875" y1="0" x2="122.6796875" y2="5" style="visibility: inherit;" fill="rgb(0, 0, 0)" stroke="rgb(204, 204, 204)" stroke-width="1px"></line><line x1="245.359375" y1="0" x2="245.359375" y2="5" style="visibility: inherit;" fill="rgb(0, 0, 0)" stroke="rgb(204, 204, 204)" stroke-width="1px"></line><line x1="368.0390625" y1="0" x2="368.0390625" y2="5" style="visibility: inherit;" fill="rgb(0, 0, 0)" stroke="rgb(204, 204, 204)" stroke-width="1px"></line><line x1="490.71875" y1="0" x2="490.71875" y2="5" style="visibility: inherit;" fill="rgb(0, 0, 0)" stroke="rgb(204, 204, 204)" stroke-width="1px"></line><line x1="613.3984375" y1="0" x2="613.3984375" y2="5" style="visibility: inherit;" fill="rgb(0, 0, 0)" stroke="rgb(204, 204, 204)" stroke-width="1px"></line><line x1="736.078125" y1="0" x2="736.078125" y2="5" style="visibility: inherit;" fill="rgb(0, 0, 0)" stroke="rgb(204, 204, 204)" stroke-width="1px"></line><line x1="858.7578125" y1="0" x2="858.7578125" y2="5" style="visibility: inherit;" fill="rgb(0, 0, 0)" stroke="rgb(204, 204, 204)" stroke-width="1px"></line><line x1="981.4375" y1="0" x2="981.4375" y2="5" style="visibility: inherit;" fill="rgb(0, 0, 0)" stroke="rgb(204, 204, 204)" stroke-width="1px"></line></g><g transform="translate(0, 8)"><text x="0" y="0" dx="0em" dy="0.95em" style="text-anchor: middle; visibility: hidden; font-family: Roboto, sans-serif; font-size: 12px; font-weight: 200;" fill="rgb(255, 255, 255)" stroke="none" stroke-width="1px">-0.5</text><text x="122.6796875" y="0" dx="0em" dy="0.95em" style="text-anchor: middle; visibility: inherit; font-family: Roboto, sans-serif; font-size: 12px; font-weight: 200;" fill="rgb(255, 255, 255)" stroke="none" stroke-width="1px">0</text><text x="245.359375" y="0" dx="0em" dy="0.95em" style="text-anchor: middle; visibility: inherit; font-family: Roboto, sans-serif; font-size: 12px; font-weight: 200;" fill="rgb(255, 255, 255)" stroke="none" stroke-width="1px">0.5</text><text x="368.0390625" y="0" dx="0em" dy="0.95em" style="text-anchor: middle; visibility: inherit; font-family: Roboto, sans-serif; font-size: 12px; font-weight: 200;" fill="rgb(255, 255, 255)" stroke="none" stroke-width="1px">1</text><text x="490.71875" y="0" dx="0em" dy="0.95em" style="text-anchor: middle; visibility: inherit; font-family: Roboto, sans-serif; font-size: 12px; font-weight: 200;" fill="rgb(255, 255, 255)" stroke="none" stroke-width="1px">1.5</text><text x="613.3984375" y="0" dx="0em" dy="0.95em" style="text-anchor: middle; visibility: inherit; font-family: Roboto, sans-serif; font-size: 12px; font-weight: 200;" fill="rgb(255, 255, 255)" stroke="none" stroke-width="1px">2</text><text x="736.078125" y="0" dx="0em" dy="0.95em" style="text-anchor: middle; visibility: inherit; font-family: Roboto, sans-serif; font-size: 12px; font-weight: 200;" fill="rgb(255, 255, 255)" stroke="none" stroke-width="1px">2.5</text><text x="858.7578125" y="0" dx="0em" dy="0.95em" style="text-anchor: middle; visibility: inherit; font-family: Roboto, sans-serif; font-size: 12px; font-weight: 200;" fill="rgb(255, 255, 255)" stroke="none" stroke-width="1px">3</text><text x="981.4375" y="0" dx="0em" dy="0.95em" style="text-anchor: middle; visibility: hidden; font-family: Roboto, sans-serif; font-size: 12px; font-weight: 200;" fill="rgb(255, 255, 255)" stroke="none" stroke-width="1px">3.5</text></g><line x1="0" y1="0" x2="981.4375" y2="0" fill="rgb(0, 0, 0)" stroke="rgb(204, 204, 204)" stroke-width="1px"></line></g></g></g></g></svg>